<?xml version="1.0" encoding="UTF-8"?>
<svg version="1.1" xmlns="http://www.w3.org/2000/svg" width="553" height="152">
<path d="M0 0 C0.78950546 -0.0038269 1.57901093 -0.00765381 2.3924408 -0.01159668 C4.06429315 -0.01431593 5.73618803 -0.00695369 7.40795898 0.00976562 C9.93247963 0.03097806 12.45408921 0.01007142 14.97851562 -0.015625 C28.08719907 -0.04044959 37.94562369 1.60427761 47.734375 11.01953125 C54.80662116 19.21314257 56.6584365 27.98795668 55.90234375 38.53125 C54.3873383 47.27462891 50.17392597 53.42765659 43.90234375 59.53125 C44.36125 60.00433594 44.82015625 60.47742188 45.29296875 60.96484375 C52.84822766 69.10738119 56.32377404 77.42397825 56.17578125 88.5234375 C55.36356697 97.4577946 51.53567718 104.58726299 44.90234375 110.53125 C37.31368759 116.46732424 30.72360367 118.8401214 21.14453125 118.8671875 C20.31905792 118.8738443 19.49358459 118.8805011 18.64309692 118.88735962 C16.90678117 118.89744147 15.17042702 118.90217803 13.43408203 118.90185547 C10.77832842 118.90624837 8.12421225 118.94266683 5.46875 118.98046875 C3.77734941 118.98633395 2.08594096 118.99030533 0.39453125 118.9921875 C-0.3972049 119.00655853 -1.18894104 119.02092957 -2.00466919 119.03573608 C-5.19872329 119.00921698 -7.56216622 118.86466664 -10.30575562 117.15640259 C-13.13017491 113.0185997 -12.65458464 108.94134276 -12.61523438 104.04296875 C-12.62224365 102.97591705 -12.62925293 101.90886536 -12.63647461 100.80947876 C-12.6540934 97.27897186 -12.64241742 93.74926519 -12.62890625 90.21875 C-12.63160003 87.7678207 -12.63548149 85.31689244 -12.64050293 82.8659668 C-12.64640327 77.7279239 -12.63781737 72.59015904 -12.61914062 67.45214844 C-12.59635126 60.86093515 -12.6094714 54.27037334 -12.63343048 47.67918396 C-12.64787369 42.61774778 -12.64328915 37.55646644 -12.63291931 32.49502563 C-12.63024796 30.06450321 -12.63353605 27.63396679 -12.64283752 25.20346069 C-12.65297832 21.80843784 -12.63753517 18.414475 -12.61523438 15.01953125 C-12.6233313 14.0116153 -12.63142822 13.00369934 -12.63977051 11.96524048 C-12.55730244 5.20013472 -12.55730244 5.20013472 -10.2950592 1.90808105 C-6.99677012 -0.15853437 -3.7723395 -0.04050023 0 0 Z M1.90234375 14.53125 C1.90234375 27.07125 1.90234375 39.61125 1.90234375 52.53125 C6.85234375 52.593125 6.85234375 52.593125 11.90234375 52.65625 C12.92585938 52.67445801 13.949375 52.69266602 15.00390625 52.71142578 C22.5111004 52.75645733 29.50639024 52.55032492 35.27734375 47.15625 C36.24800781 46.27839844 36.24800781 46.27839844 37.23828125 45.3828125 C41.41299581 40.73770756 41.27338154 36.49016785 41.1484375 30.44140625 C40.70232202 25.1659137 38.86523598 22.53999425 35.27734375 18.78125 C28.67665792 13.72424859 19.75356095 14.26420409 11.83984375 14.40625 C6.92078125 14.468125 6.92078125 14.468125 1.90234375 14.53125 Z M1.90234375 66.53125 C1.90234375 79.07125 1.90234375 91.61125 1.90234375 104.53125 C7.59484375 104.6240625 7.59484375 104.6240625 13.40234375 104.71875 C14.58248047 104.74606201 15.76261719 104.77337402 16.97851562 104.80151367 C24.11236198 104.85751027 30.25098953 104.57981899 35.9609375 99.8125 C36.41597656 99.2246875 36.87101562 98.636875 37.33984375 98.03125 C37.81292969 97.4434375 38.28601563 96.855625 38.7734375 96.25 C41.99885709 91.33932658 41.44636955 85.15781825 40.90234375 79.53125 C39.33794003 76.01462944 39.33794003 76.01462944 36.90234375 73.53125 C36.32484375 72.809375 35.74734375 72.0875 35.15234375 71.34375 C28.45014345 65.94475532 21.09442788 66.14538453 12.90234375 66.34375 C9.27234375 66.405625 5.64234375 66.4675 1.90234375 66.53125 Z " fill="#FFFFFF" transform="translate(257.09765625,14.46875)"/>
<path d="M0 0 C7.16476888 4.99899273 12.93981125 12.07900494 14.8046875 20.74609375 C15.98964842 30.21261491 15.98964842 30.21261491 12.6796875 34.49609375 C9.11669834 36.04521947 7.46188313 36.01816179 3.8046875 34.74609375 C0.91828467 31.682828 0.22102602 28.88347329 -0.5703125 24.80859375 C-1.74480273 19.76013051 -2.87727482 16.90563352 -7.1953125 13.74609375 C-12.15624558 10.70900836 -17.56942623 11.27098539 -23.1953125 11.74609375 C-27.11885973 13.00723393 -28.72874239 14.24169364 -31.5078125 17.24609375 C-34.05194333 22.52280955 -34.91799485 28.02844897 -33.7890625 33.8359375 C-31.83141763 39.16119766 -27.81596916 42.4450389 -22.8840332 44.89355469 C-20.23287309 46.03487493 -17.56679173 47.1217789 -14.8828125 48.18359375 C-2.96343438 52.90862321 9.04413634 59.11452984 14.8046875 71.30859375 C17.45725083 79.95976434 17.09483446 91.36834009 13.19140625 99.50390625 C7.26811229 109.0812886 -0.43513333 114.65439861 -11.1953125 117.74609375 C-21.6745451 118.90297951 -30.76584291 117.0024708 -39.5078125 111.05859375 C-46.81754022 105.09697155 -51.2973981 96.63010412 -52.51171875 87.3203125 C-52.70606205 83.48986875 -52.68336851 81.44331662 -50.4453125 78.24609375 C-46.81436012 75.82545883 -46.81436012 75.82545883 -44.1953125 75.74609375 C-41.20509375 77.02761607 -39.60674265 78.00985033 -38.0078125 80.87109375 C-37.31344687 83.32807983 -36.77237425 85.74797944 -36.2578125 88.24609375 C-35.27857262 92.68580539 -34.45703626 96.2051965 -30.50390625 98.8984375 C-24.18887117 102.37108888 -18.50270889 103.64776075 -11.5078125 101.62109375 C-6.7763681 99.80506604 -3.62212737 97.4899685 -1.23046875 92.890625 C0.8992955 87.8164862 1.8026881 83.15925581 0.21875 77.7421875 C-2.96191763 70.05314236 -9.98273303 66.54930638 -17.3515625 63.4375 C-20.01905948 62.35835842 -22.69618801 61.30825412 -25.37890625 60.26757812 C-33.5721269 56.9409621 -41.32385615 52.55175086 -45.6953125 44.55859375 C-46.159375 43.74003906 -46.6234375 42.92148437 -47.1015625 42.078125 C-50.49256321 34.84802705 -50.25242813 25.5158504 -48.546875 17.8203125 C-45.57397626 9.65119331 -39.90477797 2.82757547 -32.1953125 -1.25390625 C-21.44666747 -5.57205756 -10.26307507 -5.86200551 0 0 Z " fill="#FFFFFF" transform="translate(409.1953125,17.25390625)"/>
<path d="M0 0 C1.18803223 -0.01260864 2.37606445 -0.02521729 3.60009766 -0.03820801 C4.87933105 -0.03011108 6.15856445 -0.02201416 7.4765625 -0.01367188 C8.79317871 -0.01749878 10.10979492 -0.02132568 11.46630859 -0.02526855 C14.25051684 -0.03115911 17.03421099 -0.02261601 19.81835938 -0.00390625 C23.38305583 0.01888437 26.94654768 0.00575872 30.51119995 -0.01819611 C33.9164168 -0.03614518 37.32131144 -0.02356965 40.7265625 -0.01367188 C42.6454126 -0.02581726 42.6454126 -0.02581726 44.60302734 -0.03820801 C46.38507568 -0.01929504 46.38507568 -0.01929504 48.203125 0 C49.24807129 0.00318237 50.29301758 0.00636475 51.36962891 0.00964355 C54.80412707 0.6482024 55.99068558 1.78134229 58.1015625 4.51757812 C58.6015625 7.51757812 58.6015625 7.51757812 58.1015625 10.51757812 C56.10354274 13.03153683 54.91089696 14.35395059 51.72235107 14.99859619 C50.84298889 14.98971375 49.96362671 14.9808313 49.05761719 14.97167969 C48.05688171 14.97137756 47.05614624 14.97107544 46.02508545 14.97076416 C44.95204163 14.95011902 43.8789978 14.92947388 42.7734375 14.90820312 C41.66929504 14.90254333 40.56515259 14.89688354 39.42755127 14.89105225 C35.90178024 14.8686658 32.37702626 14.81846309 28.8515625 14.76757812 C26.46095218 14.74751615 24.07032592 14.72926486 21.6796875 14.71289062 C15.81960568 14.67219561 9.96172212 14.59390437 4.1015625 14.51757812 C4.1015625 27.05757812 4.1015625 39.59757812 4.1015625 52.51757812 C15.76925298 52.39899424 15.76925298 52.39899424 27.43652344 52.24731445 C28.90298813 52.23854978 30.36946013 52.23090579 31.8359375 52.22460938 C32.59277832 52.20926147 33.34961914 52.19391357 34.12939453 52.17810059 C37.38263518 52.17648581 39.68742749 52.28677642 42.55957031 53.88745117 C44.65619832 56.10391494 45.02907814 57.47323504 45.1015625 60.51757812 C43.9599706 62.80076192 42.91143567 64.70770495 41.1015625 66.51757812 C38.36286008 66.60615687 35.64881267 66.63288519 32.91015625 66.61523438 C32.18380981 66.61422729 31.45746338 66.61322021 30.70910645 66.61218262 C27.98574249 66.60693529 25.26240097 66.59297412 22.5390625 66.58007812 C16.4546875 66.55945313 10.3703125 66.53882812 4.1015625 66.51757812 C4.1015625 79.05757813 4.1015625 91.59757812 4.1015625 104.51757812 C9.32033203 104.44796875 9.32033203 104.44796875 14.64453125 104.37695312 C18.01699363 104.34575142 21.38943987 104.32146702 24.76196289 104.29785156 C27.10448411 104.27774548 29.4469552 104.25045646 31.78930664 104.21582031 C35.15784073 104.16725972 38.52571081 104.1445989 41.89453125 104.12695312 C42.94054001 104.10630798 43.98654877 104.08566284 45.06425476 104.06439209 C49.56374878 104.06300585 52.31733232 104.06246452 56.2668457 106.35449219 C58.1015625 108.51757813 58.1015625 108.51757813 58.6640625 111.51757812 C57.97145193 115.21150114 57.02281515 116.20805252 54.1015625 118.51757812 C51.36962891 119.0255127 51.36962891 119.0255127 48.203125 119.03515625 C46.42107666 119.05406921 46.42107666 119.05406921 44.60302734 119.07336426 C43.32379395 119.06526733 42.04456055 119.05717041 40.7265625 119.04882812 C39.40994629 119.05265503 38.09333008 119.05648193 36.73681641 119.0604248 C33.95260816 119.06631536 31.16891401 119.05777226 28.38476562 119.0390625 C24.82006917 119.01627188 21.25657732 119.02939753 17.69192505 119.05335236 C14.2867082 119.07130143 10.88181356 119.0587259 7.4765625 119.04882812 C6.1973291 119.05692505 4.9180957 119.06502197 3.60009766 119.07336426 C2.41206543 119.06075562 1.2240332 119.04814697 0 119.03515625 C-1.04494629 119.03197388 -2.08989258 119.0287915 -3.16650391 119.0255127 C-5.8984375 118.51757812 -5.8984375 118.51757812 -8.23474121 117.14074707 C-10.87774233 112.97349701 -10.45486362 108.86514723 -10.41601562 104.02929688 C-10.4230249 102.96224518 -10.43003418 101.89519348 -10.43725586 100.79580688 C-10.45487465 97.26529999 -10.44319867 93.73559331 -10.4296875 90.20507812 C-10.43238128 87.75414882 -10.43626274 85.30322056 -10.44128418 82.85229492 C-10.44718452 77.71425202 -10.43859862 72.57648716 -10.41992188 67.43847656 C-10.39713251 60.84726328 -10.41025265 54.25670146 -10.43421173 47.66551208 C-10.44865494 42.6040759 -10.4440704 37.54279457 -10.43370056 32.48135376 C-10.43102921 30.05083133 -10.4343173 27.62029492 -10.44361877 25.18978882 C-10.45375957 21.79476597 -10.43831642 18.40080312 -10.41601562 15.00585938 C-10.42411255 13.99794342 -10.43220947 12.99002747 -10.44055176 11.9515686 C-10.35877779 5.24340192 -10.35877779 5.24340192 -8.23474121 1.89440918 C-5.29655158 0.16287457 -3.4072369 0.0103767 0 0 Z " fill="#FFFFFF" transform="translate(486.8984375,14.482421875)"/>
<path d="M0 0 C1.29550781 -0.04350586 1.29550781 -0.04350586 2.6171875 -0.08789062 C8.95192483 -0.15143351 8.95192483 -0.15143351 12.1015625 2.01953125 C13.67395586 4.38618484 14.72752597 6.62007791 15.625 9.3125 C16.44484375 9.34988281 17.2646875 9.38726562 18.109375 9.42578125 C19.18703125 9.49152344 20.2646875 9.55726562 21.375 9.625 C22.44234375 9.68300781 23.5096875 9.74101562 24.609375 9.80078125 C27.8071068 10.34340154 29.25098691 11.16321145 31.625 13.3125 C31.3125 16.6875 31.3125 16.6875 30.625 20.3125 C27.32645762 22.51152826 26.26079544 22.57659793 22.41918945 22.63134766 C21.35831619 22.65121735 20.29744293 22.67108704 19.204422 22.69155884 C18.06059555 22.70311005 16.9167691 22.71466125 15.73828125 22.7265625 C14.56613571 22.74592865 13.39399017 22.7652948 12.18632507 22.7852478 C8.4367911 22.84510197 4.68722652 22.89145283 0.9375 22.9375 C-1.60222705 22.97567436 -4.14194107 23.01472576 -6.68164062 23.0546875 C-12.91264497 23.15080835 -19.14372751 23.23583885 -25.375 23.3125 C-25.39813273 35.53403256 -25.41591986 47.75555994 -25.42681217 59.97710991 C-25.43203895 65.65157721 -25.43913291 71.32602958 -25.45043945 77.00048828 C-25.46127557 82.47287265 -25.46727838 87.94524261 -25.46987724 93.41763687 C-25.47173018 95.50930127 -25.47534829 97.60096484 -25.48073006 99.69262314 C-25.48795007 102.61394731 -25.48899053 105.53521136 -25.48852539 108.45654297 C-25.49212067 109.32832184 -25.49571594 110.20010071 -25.49942017 111.09829712 C-25.61411775 115.33979246 -25.61411775 115.33979246 -24.375 119.3125 C-23.14869873 119.33231934 -21.92239746 119.35213867 -20.65893555 119.37255859 C-16.11331492 119.44857619 -11.56801601 119.53729947 -7.02270508 119.62988281 C-5.05467069 119.66818847 -3.0865659 119.70303855 -1.1184082 119.734375 C1.70907772 119.77999111 4.53607834 119.83799098 7.36328125 119.8984375 C8.24462234 119.90998871 9.12596344 119.92153992 10.03401184 119.93344116 C10.85463608 119.95331085 11.67526031 119.97318054 12.52075195 119.99365234 C13.24245071 120.00697601 13.96414948 120.02029968 14.7077179 120.0340271 C16.625 120.3125 16.625 120.3125 19.625 122.3125 C20.5 124.125 20.5 124.125 20.625 126.3125 C18.36346154 130.94326923 18.36346154 130.94326923 15.625 132.3125 C12.56014732 132.43635518 9.51897942 132.50097776 6.453125 132.515625 C5.53795105 132.52132507 4.6227771 132.52702515 3.67987061 132.53289795 C1.73971719 132.54235526 -0.20045235 132.54888483 -2.140625 132.55273438 C-5.09924688 132.56241573 -8.05716697 132.59342206 -11.015625 132.625 C-12.90103754 132.63153252 -14.78645506 132.63678201 -16.671875 132.640625 C-17.55333191 132.6529718 -18.43478882 132.6653186 -19.34295654 132.67803955 C-25.98970552 132.65412057 -30.03555858 131.5219287 -35.00369263 126.82989502 C-38.38074957 122.64287259 -38.07770633 118.36408349 -38.02197266 113.1796875 C-38.03073425 112.17407776 -38.03949585 111.16846802 -38.04852295 110.13238525 C-38.07048241 106.8169812 -38.05597555 103.502917 -38.0390625 100.1875 C-38.0424316 97.87874089 -38.047285 95.56998351 -38.05355835 93.26123047 C-38.06092504 88.42593475 -38.05023008 83.5911013 -38.02685547 78.75585938 C-37.99836857 72.56158654 -38.01477352 66.36839692 -38.04471779 60.17416382 C-38.06279579 55.40771338 -38.05703025 50.64151925 -38.04407883 45.87506104 C-38.04074625 43.59132763 -38.04482665 41.30757087 -38.05647659 39.02386475 C-38.06919286 35.83038807 -38.04979539 32.63865917 -38.02197266 29.4453125 C-38.03209381 28.50383362 -38.04221497 27.56235474 -38.05264282 26.59234619 C-37.98243252 22.23679971 -37.79359884 19.25440218 -34.99862671 15.79248047 C-30.38321057 11.42976307 -26.99312685 10.27443655 -20.75 10.125 C-17.90753197 10.05217127 -17.90753197 10.05217127 -15.375 9.3125 C-13.68365384 7.31835529 -12.90730226 5.58757392 -12.05859375 3.125 C-10.38677595 -1.30770547 -3.96203735 0.04395751 0 0 Z " fill="#FFFFFF" transform="translate(41.375,2.6875)"/>
<path d="M0 0 C2.090507 1.78000856 2.89782309 3.23665608 3.26280785 5.96338654 C3.3712622 8.52541544 3.37061544 11.06959685 3.34057617 13.63378906 C3.34101425 14.60973022 3.34145233 15.58567139 3.34190369 16.59118652 C3.33981408 19.81620302 3.31647451 23.04069934 3.29296875 26.265625 C3.28737342 28.50192989 3.28310302 30.73823846 3.28010559 32.97454834 C3.26865194 38.86008865 3.23918005 44.74540682 3.20599365 50.63085938 C3.17530413 56.63668818 3.16160263 62.64255288 3.14648438 68.6484375 C3.11431104 80.43238926 3.06310821 92.21617616 3 104 C3.60499329 103.99333817 4.20998657 103.98667633 4.83331299 103.97981262 C11.1272653 103.91346761 17.42111836 103.86820284 23.71533203 103.83520508 C26.06465693 103.8201141 28.41395363 103.79963908 30.76318359 103.77368164 C34.13906815 103.7373128 37.51458037 103.72027662 40.890625 103.70703125 C41.94179504 103.69154739 42.99296509 103.67606354 44.07598877 103.66011047 C45.05670349 103.65988388 46.03741821 103.65965729 47.04785156 103.65942383 C48.3402475 103.64943108 48.3402475 103.64943108 49.65875244 103.63923645 C52.52111816 104.08029926 53.89508439 105.04387629 56 107 C56.49609375 108.9375 56.49609375 108.9375 56.4375 111 C56.43621094 111.680625 56.43492187 112.36125 56.43359375 113.0625 C55.85869118 115.63143401 55.09334879 116.40465949 53 118 C50.34362793 118.38095093 50.34362793 118.38095093 47.10742188 118.38818359 C45.89606567 118.39764008 44.68470947 118.40709656 43.43664551 118.4168396 C42.12723999 118.41076691 40.81783447 118.40469421 39.46875 118.3984375 C38.11258793 118.40045851 36.75642691 118.40337018 35.40026855 118.40713501 C32.55889533 118.41155716 29.71780515 118.40513123 26.87646484 118.39111328 C23.23447897 118.37402097 19.5931563 118.3838628 15.95119476 118.40183067 C13.15105188 118.41267175 10.3510662 118.40922079 7.55091858 118.4014473 C5.5550595 118.39847298 3.55919432 118.4075834 1.56335449 118.4168396 C-0.25367981 118.40265488 -0.25367981 118.40265488 -2.10742188 118.38818359 C-3.17536987 118.38579681 -4.24331787 118.38341003 -5.34362793 118.38095093 C-8 118 -8 118 -9.80578613 116.66323853 C-11.91146101 113.73056484 -12.1271362 111.0987812 -12.14044189 107.61074829 C-12.14615204 106.71353561 -12.15186218 105.81632294 -12.15774536 104.891922 C-12.15886322 103.91003403 -12.15998108 102.92814606 -12.16113281 101.91650391 C-12.16609772 100.88046524 -12.17106262 99.84442657 -12.17617798 98.7769928 C-12.19080468 95.34350932 -12.19760214 91.91007203 -12.203125 88.4765625 C-12.20887561 86.09386188 -12.21463335 83.71116128 -12.22039795 81.32846069 C-12.23090909 76.3299742 -12.23675116 71.3315038 -12.24023438 66.33300781 C-12.24572223 59.92472004 -12.2697562 53.51664442 -12.29820633 47.10842323 C-12.31681864 42.1859576 -12.32203754 37.26354323 -12.32357025 32.34104538 C-12.3266 29.97832452 -12.33463929 27.61560464 -12.34775543 25.25291824 C-12.3647877 21.949209 -12.36294246 18.64602035 -12.35644531 15.34228516 C-12.3656601 14.36444565 -12.37487488 13.38660614 -12.3843689 12.37913513 C-12.35406272 7.46600007 -12.29712712 3.94182414 -9 0 C-5.8168485 -1.59157575 -3.38676935 -0.77242108 0 0 Z " fill="#FFFFFF" transform="translate(147,15)"/>
<path d="M0 0 C1.32 0 2.64 0 4 0 C3.80422363 1.32499512 3.80422363 1.32499512 3.60449219 2.67675781 C0.68564912 22.44412409 -2.19579857 42.21599027 -5 62 C-4.24871826 61.77981201 -3.49743652 61.55962402 -2.72338867 61.33276367 C-1.7357251 61.05150635 -0.74806152 60.77024902 0.26953125 60.48046875 C1.24768799 60.19840576 2.22584473 59.91634277 3.23364258 59.62573242 C6.43562731 58.90146388 8.85588045 59.06526176 12 60 C12.97727424 63.71638274 13.01479749 65.91867207 11.66748047 69.51025391 C11.34855835 70.37908707 11.02963623 71.24792023 10.7010498 72.14308167 C10.34337524 73.07813034 9.98570068 74.01317902 9.6171875 74.9765625 C9.2509729 75.96361679 8.8847583 76.95067108 8.50744629 77.96763611 C7.30830912 81.19125396 6.09179801 84.40801178 4.875 87.625 C4.04912436 89.83541985 3.22442327 92.04627888 2.40087891 94.25756836 C0.73987408 98.71209239 -0.92780807 103.16402066 -2.6015625 107.61376953 C-4.78180981 113.4123436 -6.94296012 119.21778678 -9.09375 125.02734375 C-9.39989227 125.85411621 -9.70603455 126.68088867 -10.02145386 127.53271484 C-10.60806558 129.11699205 -11.19464519 130.70128114 -11.78118896 132.2855835 C-13.84693224 137.85972836 -15.92378953 143.42974731 -18 149 C-19.32 149 -20.64 149 -22 149 C-19.292586 128.29065785 -16.12696428 107.64919158 -13 87 C-14.10408203 87.2165625 -14.10408203 87.2165625 -15.23046875 87.4375 C-16.20628906 87.623125 -17.18210937 87.80875 -18.1875 88 C-19.15042969 88.185625 -20.11335938 88.37125 -21.10546875 88.5625 C-23.8267831 88.97381877 -26.25733505 89.22737119 -29 89 C-29.66 88.34 -30.32 87.68 -31 87 C-30.7138824 80.67082716 -28.36582745 75.05107771 -26.1328125 69.1796875 C-25.54617073 67.61201881 -25.54617073 67.61201881 -24.94767761 66.01268005 C-23.68022657 62.63086441 -22.40278073 59.2529246 -21.125 55.875 C-20.25617113 53.5629633 -19.38792682 51.25070685 -18.52026367 48.93823242 C-16.02278602 42.28863774 -13.5125768 35.64390093 -11 29 C-10.341525 27.25638886 -9.68314997 25.51273996 -9.02490234 23.76904297 C-6.03094453 15.84054602 -3.02611211 7.9162926 0 0 Z " fill="#FFFFFF" transform="translate(83,0)"/>
<path d="M0 0 C1.31260048 -0.00786278 1.31260048 -0.00786278 2.65171814 -0.0158844 C4.49835144 -0.02229829 6.34502563 -0.02097579 8.19165039 -0.01245117 C11.02108072 -0.00392512 13.84850265 -0.03273583 16.67773438 -0.06445312 C18.47265564 -0.06606482 20.26758049 -0.06548821 22.0625 -0.0625 C22.9094191 -0.07373398 23.7563382 -0.08496796 24.62892151 -0.09654236 C30.45667007 -0.02713735 30.45667007 -0.02713735 32.99414062 2.2734375 C34.32018575 5.22435481 34.39861142 7.64262665 34.40234375 10.87109375 C34.42167969 11.98355469 34.44101563 13.09601563 34.4609375 14.2421875 C33.83694323 18.25638683 32.94732271 19.67215688 29.96484375 22.43359375 C27.02178168 23.13609009 24.16043172 23.03999391 21.1484375 22.95703125 C20.29556656 22.95232819 19.44269562 22.94762512 18.5639801 22.94277954 C15.84260909 22.92145279 13.12319294 22.86485236 10.40234375 22.80859375 C8.56707566 22.79208459 6.73178676 22.77773705 4.89648438 22.765625 C-8.44349634 22.63081372 -8.44349634 22.63081372 -12.03515625 21.43359375 C-13.60829809 18.28731007 -13.30211951 14.94777887 -13.34765625 11.49609375 C-13.37666016 10.76712891 -13.40566406 10.03816406 -13.43554688 9.28710938 C-13.49884937 3.97456906 -13.49884937 3.97456906 -11.57324219 1.72802734 C-7.76878661 -0.21225964 -4.21451383 -0.01464358 0 0 Z " fill="#FFFFFF" transform="translate(31.03515625,92.56640625)"/>
<path d="M0 0 C1.2757489 -0.00786278 1.2757489 -0.00786278 2.57727051 -0.0158844 C4.37262888 -0.02229816 6.16802931 -0.02097595 7.96337891 -0.01245117 C10.70941943 -0.00393519 13.45338336 -0.03271932 16.19921875 -0.06445312 C17.94531188 -0.06606513 19.69140868 -0.06548762 21.4375 -0.0625 C22.25738403 -0.07373398 23.07726807 -0.08496796 23.92199707 -0.09654236 C27.75141698 -0.04974224 29.61305088 -0.02022788 32.75024414 2.33032227 C34.96911475 5.5083057 34.3675861 7.51069125 33.76953125 11.18359375 C32.7002861 15.55157396 30.94266503 19.78870303 27.21875 22.43359375 C24.38358182 22.73189427 21.77262076 22.8539793 18.9375 22.83203125 C17.7226593 22.83633652 17.7226593 22.83633652 16.48327637 22.84072876 C14.77188416 22.84276917 13.06046862 22.83724084 11.34912109 22.82470703 C8.7283111 22.80865232 6.10904323 22.82455569 3.48828125 22.84375 C1.82551743 22.84176756 0.16275456 22.83792388 -1.5 22.83203125 C-2.28443481 22.83810394 -3.06886963 22.84417664 -3.8770752 22.85043335 C-9.24711105 22.78095113 -9.24711105 22.78095113 -11.77172852 21.13916016 C-13.54729379 18.13937806 -13.25185959 14.81679137 -13.21875 11.43359375 C-13.23873047 10.70914063 -13.25871094 9.9846875 -13.27929688 9.23828125 C-13.27446489 4.00041311 -13.27446489 4.00041311 -11.29907227 1.73022461 C-7.62384582 -0.16244752 -4.04101499 -0.01446907 0 0 Z " fill="#FFFFFF" transform="translate(30.78125,32.56640625)"/>
<path d="M0 0 C0.67767426 -0.0004985 1.35534851 -0.00099701 2.05355835 -0.00151062 C3.4807225 0.00082299 4.90789131 0.01050952 6.33496094 0.02709961 C8.5231585 0.05077823 10.71014363 0.04764533 12.8984375 0.04101562 C23.61922694 0.08407069 23.61922694 0.08407069 25.8984375 2.36328125 C26.27648385 8.43722587 24.41461932 14.42946422 20.8984375 19.36328125 C17.74039099 22.24774013 15.6374928 22.74676241 11.3984375 22.76171875 C10.3465625 22.76558594 9.2946875 22.76945312 8.2109375 22.7734375 C6.57125 22.75603516 6.57125 22.75603516 4.8984375 22.73828125 C3.8053125 22.74988281 2.7121875 22.76148437 1.5859375 22.7734375 C0.008125 22.76763672 0.008125 22.76763672 -1.6015625 22.76171875 C-2.560625 22.75833496 -3.5196875 22.75495117 -4.5078125 22.75146484 C-7.56083213 22.29454643 -8.93679634 21.54869403 -11.1015625 19.36328125 C-11.50894678 16.53555504 -11.66172294 14.18079519 -11.6015625 11.36328125 C-11.61703125 10.63882813 -11.6325 9.914375 -11.6484375 9.16796875 C-11.60962738 3.90919735 -11.60962738 3.90919735 -9.51220703 1.65551758 C-6.23066709 -0.10356597 -3.71414347 -0.00875196 0 0 Z " fill="#FFFFFF" transform="translate(29.1015625,62.63671875)"/>
<path d="M0 0 C0.33 0 0.66 0 1 0 C1 4.29 1 8.58 1 13 C0.67 13 0.34 13 0 13 C0 8.71 0 4.42 0 0 Z " fill="#FFFFFF" transform="translate(16,38)"/>
<path d="M0 0 C0.33 0 0.66 0 1 0 C1 3.63 1 7.26 1 11 C0.67 11 0.34 11 0 11 C0 7.37 0 3.74 0 0 Z " fill="#FFFFFF" transform="translate(16,98)"/>
<path d="M0 0 C0.33 0 0.66 0 1 0 C1 3.3 1 6.6 1 10 C0.67 10 0.34 10 0 10 C0 6.7 0 3.4 0 0 Z " fill="#FFFFFF" transform="translate(16,70)"/>
<path d="" fill="#FFFFFF" transform="translate(0,0)"/>
<path d="" fill="#FFFFFF" transform="translate(0,0)"/>
<path d="" fill="#FFFFFF" transform="translate(0,0)"/>
</svg>
