<?xml version="1.0" encoding="UTF-8"?>
<svg version="1.1" xmlns="http://www.w3.org/2000/svg" width="553" height="152">
<path d="M0 0 C0.78950546 -0.0038269 1.57901093 -0.00765381 2.3924408 -0.01159668 C4.06429315 -0.01431593 5.73618803 -0.00695369 7.40795898 0.00976562 C9.93247963 0.03097806 12.45408921 0.01007142 14.97851562 -0.015625 C28.08719907 -0.04044959 37.94562369 1.60427761 47.734375 11.01953125 C54.80662116 19.21314257 56.6584365 27.98795668 55.90234375 38.53125 C54.3873383 47.27462891 50.17392597 53.42765659 43.90234375 59.53125 C44.36125 60.00433594 44.82015625 60.47742188 45.29296875 60.96484375 C52.84822766 69.10738119 56.32377404 77.42397825 56.17578125 88.5234375 C55.36356697 97.4577946 51.53567718 104.58726299 44.90234375 110.53125 C37.31368759 116.46732424 30.72360367 118.8401214 21.14453125 118.8671875 C20.31905792 118.8738443 19.49358459 118.8805011 18.64309692 118.88735962 C16.90678117 118.89744147 15.17042702 118.90217803 13.43408203 118.90185547 C10.77832842 118.90624837 8.12421225 118.94266683 5.46875 118.98046875 C3.77734941 118.98633395 2.08594096 118.99030533 0.39453125 118.9921875 C-0.3972049 119.00655853 -1.18894104 119.02092957 -2.00466919 119.03573608 C-5.19872329 119.00921698 -7.56216622 118.86466664 -10.30575562 117.15640259 C-13.13017491 113.0185997 -12.65458464 108.94134276 -12.61523438 104.04296875 C-12.62224365 102.97591705 -12.62925293 101.90886536 -12.63647461 100.80947876 C-12.6540934 97.27897186 -12.64241742 93.74926519 -12.62890625 90.21875 C-12.63160003 87.7678207 -12.63548149 85.31689244 -12.64050293 82.8659668 C-12.64640327 77.7279239 -12.63781737 72.59015904 -12.61914062 67.45214844 C-12.59635126 60.86093515 -12.6094714 54.27037334 -12.63343048 47.67918396 C-12.64787369 42.61774778 -12.64328915 37.55646644 -12.63291931 32.49502563 C-12.63024796 30.06450321 -12.63353605 27.63396679 -12.64283752 25.20346069 C-12.65297832 21.80843784 -12.63753517 18.414475 -12.61523438 15.01953125 C-12.6233313 14.0116153 -12.63142822 13.00369934 -12.63977051 11.96524048 C-12.55730244 5.20013472 -12.55730244 5.20013472 -10.2950592 1.90808105 C-6.99677012 -0.15853437 -3.7723395 -0.04050023 0 0 Z M1.90234375 14.53125 C1.90234375 27.07125 1.90234375 39.61125 1.90234375 52.53125 C6.85234375 52.593125 6.85234375 52.593125 11.90234375 52.65625 C12.92585938 52.67445801 13.949375 52.69266602 15.00390625 52.71142578 C22.5111004 52.75645733 29.50639024 52.55032492 35.27734375 47.15625 C36.24800781 46.27839844 36.24800781 46.27839844 37.23828125 45.3828125 C41.41299581 40.73770756 41.27338154 36.49016785 41.1484375 30.44140625 C40.70232202 25.1659137 38.86523598 22.53999425 35.27734375 18.78125 C28.67665792 13.72424859 19.75356095 14.26420409 11.83984375 14.40625 C6.92078125 14.468125 6.92078125 14.468125 1.90234375 14.53125 Z M1.90234375 66.53125 C1.90234375 79.07125 1.90234375 91.61125 1.90234375 104.53125 C7.59484375 104.6240625 7.59484375 104.6240625 13.40234375 104.71875 C14.58248047 104.74606201 15.76261719 104.77337402 16.97851562 104.80151367 C24.11236198 104.85751027 30.25098953 104.57981899 35.9609375 99.8125 C36.41597656 99.2246875 36.87101562 98.636875 37.33984375 98.03125 C37.81292969 97.4434375 38.28601563 96.855625 38.7734375 96.25 C41.99885709 91.33932658 41.44636955 85.15781825 40.90234375 79.53125 C39.33794003 76.01462944 39.33794003 76.01462944 36.90234375 73.53125 C36.32484375 72.809375 35.74734375 72.0875 35.15234375 71.34375 C28.45014345 65.94475532 21.09442788 66.14538453 12.90234375 66.34375 C9.27234375 66.405625 5.64234375 66.4675 1.90234375 66.53125 Z " fill="#E77606" transform="translate(257.09765625,14.46875)"/>
<path d="M0 0 C7.16476888 4.99899273 12.93981125 12.07900494 14.8046875 20.74609375 C15.98964842 30.21261491 15.98964842 30.21261491 12.6796875 34.49609375 C9.11669834 36.04521947 7.46188313 36.01816179 3.8046875 34.74609375 C0.91828467 31.682828 0.22102602 28.88347329 -0.5703125 24.80859375 C-1.74480273 19.76013051 -2.87727482 16.90563352 -7.1953125 13.74609375 C-12.15624558 10.70900836 -17.56942623 11.27098539 -23.1953125 11.74609375 C-27.11885973 13.00723393 -28.72874239 14.24169364 -31.5078125 17.24609375 C-34.05194333 22.52280955 -34.91799485 28.02844897 -33.7890625 33.8359375 C-31.83141763 39.16119766 -27.81596916 42.4450389 -22.8840332 44.89355469 C-20.23287309 46.03487493 -17.56679173 47.1217789 -14.8828125 48.18359375 C-2.96343438 52.90862321 9.04413634 59.11452984 14.8046875 71.30859375 C17.45725083 79.95976434 17.09483446 91.36834009 13.19140625 99.50390625 C7.26811229 109.0812886 -0.43513333 114.65439861 -11.1953125 117.74609375 C-21.6745451 118.90297951 -30.76584291 117.0024708 -39.5078125 111.05859375 C-46.81754022 105.09697155 -51.2973981 96.63010412 -52.51171875 87.3203125 C-52.70606205 83.48986875 -52.68336851 81.44331662 -50.4453125 78.24609375 C-46.81436012 75.82545883 -46.81436012 75.82545883 -44.1953125 75.74609375 C-41.20509375 77.02761607 -39.60674265 78.00985033 -38.0078125 80.87109375 C-37.31344687 83.32807983 -36.77237425 85.74797944 -36.2578125 88.24609375 C-35.27857262 92.68580539 -34.45703626 96.2051965 -30.50390625 98.8984375 C-24.18887117 102.37108888 -18.50270889 103.64776075 -11.5078125 101.62109375 C-6.7763681 99.80506604 -3.62212737 97.4899685 -1.23046875 92.890625 C0.8992955 87.8164862 1.8026881 83.15925581 0.21875 77.7421875 C-2.96191763 70.05314236 -9.98273303 66.54930638 -17.3515625 63.4375 C-20.01905948 62.35835842 -22.69618801 61.30825412 -25.37890625 60.26757812 C-33.5721269 56.9409621 -41.32385615 52.55175086 -45.6953125 44.55859375 C-46.159375 43.74003906 -46.6234375 42.92148437 -47.1015625 42.078125 C-50.49256321 34.84802705 -50.25242813 25.5158504 -48.546875 17.8203125 C-45.57397626 9.65119331 -39.90477797 2.82757547 -32.1953125 -1.25390625 C-21.44666747 -5.57205756 -10.26307507 -5.86200551 0 0 Z " fill="#E77607" transform="translate(409.1953125,17.25390625)"/>
<path d="M0 0 C1.18803223 -0.01260864 2.37606445 -0.02521729 3.60009766 -0.03820801 C4.87933105 -0.03011108 6.15856445 -0.02201416 7.4765625 -0.01367188 C8.79317871 -0.01749878 10.10979492 -0.02132568 11.46630859 -0.02526855 C14.25051684 -0.03115911 17.03421099 -0.02261601 19.81835938 -0.00390625 C23.38305583 0.01888437 26.94654768 0.00575872 30.51119995 -0.01819611 C33.9164168 -0.03614518 37.32131144 -0.02356965 40.7265625 -0.01367188 C42.6454126 -0.02581726 42.6454126 -0.02581726 44.60302734 -0.03820801 C46.38507568 -0.01929504 46.38507568 -0.01929504 48.203125 0 C49.24807129 0.00318237 50.29301758 0.00636475 51.36962891 0.00964355 C54.80412707 0.6482024 55.99068558 1.78134229 58.1015625 4.51757812 C58.6015625 7.51757812 58.6015625 7.51757812 58.1015625 10.51757812 C56.10354274 13.03153683 54.91089696 14.35395059 51.72235107 14.99859619 C50.84298889 14.98971375 49.96362671 14.9808313 49.05761719 14.97167969 C48.05688171 14.97137756 47.05614624 14.97107544 46.02508545 14.97076416 C44.95204163 14.95011902 43.8789978 14.92947388 42.7734375 14.90820312 C41.66929504 14.90254333 40.56515259 14.89688354 39.42755127 14.89105225 C35.90178024 14.8686658 32.37702626 14.81846309 28.8515625 14.76757812 C26.46095218 14.74751615 24.07032592 14.72926486 21.6796875 14.71289062 C15.81960568 14.67219561 9.96172212 14.59390437 4.1015625 14.51757812 C4.1015625 27.05757812 4.1015625 39.59757812 4.1015625 52.51757812 C15.76925298 52.39899424 15.76925298 52.39899424 27.43652344 52.24731445 C28.90298813 52.23854978 30.36946013 52.23090579 31.8359375 52.22460938 C32.59277832 52.20926147 33.34961914 52.19391357 34.12939453 52.17810059 C37.38263518 52.17648581 39.68742749 52.28677642 42.55957031 53.88745117 C44.65619832 56.10391494 45.02907814 57.47323504 45.1015625 60.51757812 C43.9599706 62.80076192 42.91143567 64.70770495 41.1015625 66.51757812 C38.36286008 66.60615687 35.64881267 66.63288519 32.91015625 66.61523438 C32.18380981 66.61422729 31.45746338 66.61322021 30.70910645 66.61218262 C27.98574249 66.60693529 25.26240097 66.59297412 22.5390625 66.58007812 C16.4546875 66.55945313 10.3703125 66.53882812 4.1015625 66.51757812 C4.1015625 79.05757813 4.1015625 91.59757812 4.1015625 104.51757812 C9.32033203 104.44796875 9.32033203 104.44796875 14.64453125 104.37695312 C18.01699363 104.34575142 21.38943987 104.32146702 24.76196289 104.29785156 C27.10448411 104.27774548 29.4469552 104.25045646 31.78930664 104.21582031 C35.15784073 104.16725972 38.52571081 104.1445989 41.89453125 104.12695312 C42.94054001 104.10630798 43.98654877 104.08566284 45.06425476 104.06439209 C49.56374878 104.06300585 52.31733232 104.06246452 56.2668457 106.35449219 C58.1015625 108.51757813 58.1015625 108.51757813 58.6640625 111.51757812 C57.97145193 115.21150114 57.02281515 116.20805252 54.1015625 118.51757812 C51.36962891 119.0255127 51.36962891 119.0255127 48.203125 119.03515625 C46.42107666 119.05406921 46.42107666 119.05406921 44.60302734 119.07336426 C43.32379395 119.06526733 42.04456055 119.05717041 40.7265625 119.04882812 C39.40994629 119.05265503 38.09333008 119.05648193 36.73681641 119.0604248 C33.95260816 119.06631536 31.16891401 119.05777226 28.38476562 119.0390625 C24.82006917 119.01627188 21.25657732 119.02939753 17.69192505 119.05335236 C14.2867082 119.07130143 10.88181356 119.0587259 7.4765625 119.04882812 C6.1973291 119.05692505 4.9180957 119.06502197 3.60009766 119.07336426 C2.41206543 119.06075562 1.2240332 119.04814697 0 119.03515625 C-1.04494629 119.03197388 -2.08989258 119.0287915 -3.16650391 119.0255127 C-5.8984375 118.51757812 -5.8984375 118.51757812 -8.23474121 117.14074707 C-10.87774233 112.97349701 -10.45486362 108.86514723 -10.41601562 104.02929688 C-10.4230249 102.96224518 -10.43003418 101.89519348 -10.43725586 100.79580688 C-10.45487465 97.26529999 -10.44319867 93.73559331 -10.4296875 90.20507812 C-10.43238128 87.75414882 -10.43626274 85.30322056 -10.44128418 82.85229492 C-10.44718452 77.71425202 -10.43859862 72.57648716 -10.41992188 67.43847656 C-10.39713251 60.84726328 -10.41025265 54.25670146 -10.43421173 47.66551208 C-10.44865494 42.6040759 -10.4440704 37.54279457 -10.43370056 32.48135376 C-10.43102921 30.05083133 -10.4343173 27.62029492 -10.44361877 25.18978882 C-10.45375957 21.79476597 -10.43831642 18.40080312 -10.41601562 15.00585938 C-10.42411255 13.99794342 -10.43220947 12.99002747 -10.44055176 11.9515686 C-10.35877779 5.24340192 -10.35877779 5.24340192 -8.23474121 1.89440918 C-5.29655158 0.16287457 -3.4072369 0.0103767 0 0 Z " fill="#E77606" transform="translate(486.8984375,14.482421875)"/>
<path d="M0 0 C1.29550781 -0.04350586 1.29550781 -0.04350586 2.6171875 -0.08789062 C8.95192483 -0.15143351 8.95192483 -0.15143351 12.1015625 2.01953125 C13.67395586 4.38618484 14.72752597 6.62007791 15.625 9.3125 C16.44484375 9.34988281 17.2646875 9.38726562 18.109375 9.42578125 C19.18703125 9.49152344 20.2646875 9.55726562 21.375 9.625 C22.44234375 9.68300781 23.5096875 9.74101562 24.609375 9.80078125 C27.8071068 10.34340154 29.25098691 11.16321145 31.625 13.3125 C31.3125 16.6875 31.3125 16.6875 30.625 20.3125 C27.32645762 22.51152826 26.26079544 22.57659793 22.41918945 22.63134766 C21.35831619 22.65121735 20.29744293 22.67108704 19.204422 22.69155884 C18.06059555 22.70311005 16.9167691 22.71466125 15.73828125 22.7265625 C14.56613571 22.74592865 13.39399017 22.7652948 12.18632507 22.7852478 C8.4367911 22.84510197 4.68722652 22.89145283 0.9375 22.9375 C-1.60222705 22.97567436 -4.14194107 23.01472576 -6.68164062 23.0546875 C-12.91264497 23.15080835 -19.14372751 23.23583885 -25.375 23.3125 C-25.39813273 35.53403256 -25.41591986 47.75555994 -25.42681217 59.97710991 C-25.43203895 65.65157721 -25.43913291 71.32602958 -25.45043945 77.00048828 C-25.46127557 82.47287265 -25.46727838 87.94524261 -25.46987724 93.41763687 C-25.47173018 95.50930127 -25.47534829 97.60096484 -25.48073006 99.69262314 C-25.48795007 102.61394731 -25.48899053 105.53521136 -25.48852539 108.45654297 C-25.49212067 109.32832184 -25.49571594 110.20010071 -25.49942017 111.09829712 C-25.61411775 115.33979246 -25.61411775 115.33979246 -24.375 119.3125 C-23.14869873 119.33231934 -21.92239746 119.35213867 -20.65893555 119.37255859 C-16.11331492 119.44857619 -11.56801601 119.53729947 -7.02270508 119.62988281 C-5.05467069 119.66818847 -3.0865659 119.70303855 -1.1184082 119.734375 C1.70907772 119.77999111 4.53607834 119.83799098 7.36328125 119.8984375 C8.24462234 119.90998871 9.12596344 119.92153992 10.03401184 119.93344116 C10.85463608 119.95331085 11.67526031 119.97318054 12.52075195 119.99365234 C13.24245071 120.00697601 13.96414948 120.02029968 14.7077179 120.0340271 C16.625 120.3125 16.625 120.3125 19.625 122.3125 C20.5 124.125 20.5 124.125 20.625 126.3125 C18.36346154 130.94326923 18.36346154 130.94326923 15.625 132.3125 C12.56014732 132.43635518 9.51897942 132.50097776 6.453125 132.515625 C5.53795105 132.52132507 4.6227771 132.52702515 3.67987061 132.53289795 C1.73971719 132.54235526 -0.20045235 132.54888483 -2.140625 132.55273438 C-5.09924688 132.56241573 -8.05716697 132.59342206 -11.015625 132.625 C-12.90103754 132.63153252 -14.78645506 132.63678201 -16.671875 132.640625 C-17.55333191 132.6529718 -18.43478882 132.6653186 -19.34295654 132.67803955 C-25.98970552 132.65412057 -30.03555858 131.5219287 -35.00369263 126.82989502 C-38.38074957 122.64287259 -38.07770633 118.36408349 -38.02197266 113.1796875 C-38.03073425 112.17407776 -38.03949585 111.16846802 -38.04852295 110.13238525 C-38.07048241 106.8169812 -38.05597555 103.502917 -38.0390625 100.1875 C-38.0424316 97.87874089 -38.047285 95.56998351 -38.05355835 93.26123047 C-38.06092504 88.42593475 -38.05023008 83.5911013 -38.02685547 78.75585938 C-37.99836857 72.56158654 -38.01477352 66.36839692 -38.04471779 60.17416382 C-38.06279579 55.40771338 -38.05703025 50.64151925 -38.04407883 45.87506104 C-38.04074625 43.59132763 -38.04482665 41.30757087 -38.05647659 39.02386475 C-38.06919286 35.83038807 -38.04979539 32.63865917 -38.02197266 29.4453125 C-38.03209381 28.50383362 -38.04221497 27.56235474 -38.05264282 26.59234619 C-37.98243252 22.23679971 -37.79359884 19.25440218 -34.99862671 15.79248047 C-30.38321057 11.42976307 -26.99312685 10.27443655 -20.75 10.125 C-17.90753197 10.05217127 -17.90753197 10.05217127 -15.375 9.3125 C-13.68365384 7.31835529 -12.90730226 5.58757392 -12.05859375 3.125 C-10.38677595 -1.30770547 -3.96203735 0.04395751 0 0 Z " fill="#E87605" transform="translate(41.375,2.6875)"/>
<path d="M0 0 C2.090507 1.78000856 2.89782309 3.23665608 3.26280785 5.96338654 C3.3712622 8.52541544 3.37061544 11.06959685 3.34057617 13.63378906 C3.34101425 14.60973022 3.34145233 15.58567139 3.34190369 16.59118652 C3.33981408 19.81620302 3.31647451 23.04069934 3.29296875 26.265625 C3.28737342 28.50192989 3.28310302 30.73823846 3.28010559 32.97454834 C3.26865194 38.86008865 3.23918005 44.74540682 3.20599365 50.63085938 C3.17530413 56.63668818 3.16160263 62.64255288 3.14648438 68.6484375 C3.11431104 80.43238926 3.06310821 92.21617616 3 104 C3.60499329 103.99333817 4.20998657 103.98667633 4.83331299 103.97981262 C11.1272653 103.91346761 17.42111836 103.86820284 23.71533203 103.83520508 C26.06465693 103.8201141 28.41395363 103.79963908 30.76318359 103.77368164 C34.13906815 103.7373128 37.51458037 103.72027662 40.890625 103.70703125 C41.94179504 103.69154739 42.99296509 103.67606354 44.07598877 103.66011047 C45.05670349 103.65988388 46.03741821 103.65965729 47.04785156 103.65942383 C48.3402475 103.64943108 48.3402475 103.64943108 49.65875244 103.63923645 C52.52111816 104.08029926 53.89508439 105.04387629 56 107 C56.49609375 108.9375 56.49609375 108.9375 56.4375 111 C56.43621094 111.680625 56.43492187 112.36125 56.43359375 113.0625 C55.85869118 115.63143401 55.09334879 116.40465949 53 118 C50.34362793 118.38095093 50.34362793 118.38095093 47.10742188 118.38818359 C45.89606567 118.39764008 44.68470947 118.40709656 43.43664551 118.4168396 C42.12723999 118.41076691 40.81783447 118.40469421 39.46875 118.3984375 C38.11258793 118.40045851 36.75642691 118.40337018 35.40026855 118.40713501 C32.55889533 118.41155716 29.71780515 118.40513123 26.87646484 118.39111328 C23.23447897 118.37402097 19.5931563 118.3838628 15.95119476 118.40183067 C13.15105188 118.41267175 10.3510662 118.40922079 7.55091858 118.4014473 C5.5550595 118.39847298 3.55919432 118.4075834 1.56335449 118.4168396 C-0.25367981 118.40265488 -0.25367981 118.40265488 -2.10742188 118.38818359 C-3.17536987 118.38579681 -4.24331787 118.38341003 -5.34362793 118.38095093 C-8 118 -8 118 -9.80578613 116.66323853 C-11.91146101 113.73056484 -12.1271362 111.0987812 -12.14044189 107.61074829 C-12.14615204 106.71353561 -12.15186218 105.81632294 -12.15774536 104.891922 C-12.15886322 103.91003403 -12.15998108 102.92814606 -12.16113281 101.91650391 C-12.16609772 100.88046524 -12.17106262 99.84442657 -12.17617798 98.7769928 C-12.19080468 95.34350932 -12.19760214 91.91007203 -12.203125 88.4765625 C-12.20887561 86.09386188 -12.21463335 83.71116128 -12.22039795 81.32846069 C-12.23090909 76.3299742 -12.23675116 71.3315038 -12.24023438 66.33300781 C-12.24572223 59.92472004 -12.2697562 53.51664442 -12.29820633 47.10842323 C-12.31681864 42.1859576 -12.32203754 37.26354323 -12.32357025 32.34104538 C-12.3266 29.97832452 -12.33463929 27.61560464 -12.34775543 25.25291824 C-12.3647877 21.949209 -12.36294246 18.64602035 -12.35644531 15.34228516 C-12.3656601 14.36444565 -12.37487488 13.38660614 -12.3843689 12.37913513 C-12.35406272 7.46600007 -12.29712712 3.94182414 -9 0 C-5.8168485 -1.59157575 -3.38676935 -0.77242108 0 0 Z " fill="#E6770A" transform="translate(147,15)"/>
<path d="M0 0 C1.32 0 2.64 0 4 0 C3.80422363 1.32499512 3.80422363 1.32499512 3.60449219 2.67675781 C0.68564912 22.44412409 -2.19579857 42.21599027 -5 62 C-4.24871826 61.77981201 -3.49743652 61.55962402 -2.72338867 61.33276367 C-1.7357251 61.05150635 -0.74806152 60.77024902 0.26953125 60.48046875 C1.24768799 60.19840576 2.22584473 59.91634277 3.23364258 59.62573242 C6.43562731 58.90146388 8.85588045 59.06526176 12 60 C12.97727424 63.71638274 13.01479749 65.91867207 11.66748047 69.51025391 C11.34855835 70.37908707 11.02963623 71.24792023 10.7010498 72.14308167 C10.34337524 73.07813034 9.98570068 74.01317902 9.6171875 74.9765625 C9.2509729 75.96361679 8.8847583 76.95067108 8.50744629 77.96763611 C7.30830912 81.19125396 6.09179801 84.40801178 4.875 87.625 C4.04912436 89.83541985 3.22442327 92.04627888 2.40087891 94.25756836 C0.73987408 98.71209239 -0.92780807 103.16402066 -2.6015625 107.61376953 C-4.78180981 113.4123436 -6.94296012 119.21778678 -9.09375 125.02734375 C-9.39989227 125.85411621 -9.70603455 126.68088867 -10.02145386 127.53271484 C-10.60806558 129.11699205 -11.19464519 130.70128114 -11.78118896 132.2855835 C-13.84693224 137.85972836 -15.92378953 143.42974731 -18 149 C-19.32 149 -20.64 149 -22 149 C-19.292586 128.29065785 -16.12696428 107.64919158 -13 87 C-14.10408203 87.2165625 -14.10408203 87.2165625 -15.23046875 87.4375 C-16.20628906 87.623125 -17.18210937 87.80875 -18.1875 88 C-19.15042969 88.185625 -20.11335938 88.37125 -21.10546875 88.5625 C-23.8267831 88.97381877 -26.25733505 89.22737119 -29 89 C-29.66 88.34 -30.32 87.68 -31 87 C-30.7138824 80.67082716 -28.36582745 75.05107771 -26.1328125 69.1796875 C-25.54617073 67.61201881 -25.54617073 67.61201881 -24.94767761 66.01268005 C-23.68022657 62.63086441 -22.40278073 59.2529246 -21.125 55.875 C-20.25617113 53.5629633 -19.38792682 51.25070685 -18.52026367 48.93823242 C-16.02278602 42.28863774 -13.5125768 35.64390093 -11 29 C-10.341525 27.25638886 -9.68314997 25.51273996 -9.02490234 23.76904297 C-6.03094453 15.84054602 -3.02611211 7.9162926 0 0 Z " fill="#E97605" transform="translate(83,0)"/>
<path d="M0 0 C1.32 0.33 2.64 0.66 4 1 C5.18390931 5.69026737 5.16571798 10.25311942 5.18945312 15.05712891 C5.19774643 15.96012222 5.20603973 16.86311554 5.21458435 17.79347229 C5.23194594 19.74902243 5.24712328 21.70459292 5.26036072 23.66017532 C5.28143084 26.7531088 5.30844833 29.84593972 5.33703613 32.93881226 C5.40678245 40.61721682 5.46631106 48.29569444 5.52606201 55.97418213 C5.57697073 62.46854433 5.63177895 68.9628504 5.69187927 75.45713425 C5.71847701 78.50775237 5.73927413 81.55837572 5.7598877 84.60903931 C5.77648733 86.47324883 5.79335887 88.33745596 5.81054688 90.20166016 C5.8168235 91.4781266 5.8168235 91.4781266 5.82322693 92.78038025 C5.85876005 96.09967161 5.94318873 98.82956619 7 102 C7.54901474 102.01030746 8.09802948 102.02061493 8.66368103 102.03123474 C14.35721281 102.13907947 20.05057921 102.25369449 25.74389648 102.37231445 C27.87114007 102.41573423 29.9984201 102.45740393 32.12573242 102.49731445 C35.17638151 102.55484707 38.22684589 102.61858967 41.27734375 102.68359375 C42.23462875 102.70030624 43.19191376 102.71701874 44.1782074 102.73423767 C45.05904495 102.75418289 45.93988251 102.77412811 46.84741211 102.79467773 C47.62684677 102.81022202 48.40628143 102.8257663 49.20933533 102.84178162 C51 103 51 103 52 104 C52.04063832 105.66617115 52.042721 107.33388095 52 109 C48.09801884 111.61261386 43.91293235 111.32343267 39.39453125 111.3359375 C38.55589035 111.3425943 37.71724945 111.3492511 36.85319519 111.35610962 C35.07882881 111.36622431 33.30442448 111.370927 31.5300293 111.37060547 C28.83902689 111.3749571 26.14969442 111.41122761 23.45898438 111.44921875 C21.72917223 111.45509179 19.99935235 111.45905792 18.26953125 111.4609375 C17.47545364 111.47530853 16.68137604 111.48967957 15.86323547 111.50448608 C10.08388779 111.45813448 4.81555576 110.35096513 0 107 C-3.31051519 102.90984451 -3.41953891 99.06552714 -3.35644531 94.00366211 C-3.35848969 93.21266113 -3.36053406 92.42166016 -3.36264038 91.60668945 C-3.36564307 88.99667068 -3.34717456 86.38728735 -3.328125 83.77734375 C-3.32506401 81.95235856 -3.32319048 80.12737103 -3.32244873 78.30238342 C-3.3178475 74.47501692 -3.30343729 70.64786102 -3.28125 66.82055664 C-3.25310841 61.94436818 -3.24205156 57.06834626 -3.2375679 52.19208431 C-3.23237524 47.51214987 -3.21785233 42.83225607 -3.203125 38.15234375 C-3.20124428 37.27284498 -3.19936356 36.39334621 -3.19742584 35.48719597 C-3.13457265 12.71391855 -3.13457265 12.71391855 -2 7 C-1.34 6.67 -0.68 6.34 0 6 C0.33 6.66 0.66 7.32 1 8 C1.33 6.68 1.66 5.36 2 4 C1.34 4 0.68 4 0 4 C0 2.68 0 1.36 0 0 Z " fill="#E87505" transform="translate(8,22)"/>
<path d="M0 0 C1.31260048 -0.00786278 1.31260048 -0.00786278 2.65171814 -0.0158844 C4.49835144 -0.02229829 6.34502563 -0.02097579 8.19165039 -0.01245117 C11.02108072 -0.00392512 13.84850265 -0.03273583 16.67773438 -0.06445312 C18.47265564 -0.06606482 20.26758049 -0.06548821 22.0625 -0.0625 C22.9094191 -0.07373398 23.7563382 -0.08496796 24.62892151 -0.09654236 C30.45667007 -0.02713735 30.45667007 -0.02713735 32.99414062 2.2734375 C34.32018575 5.22435481 34.39861142 7.64262665 34.40234375 10.87109375 C34.42167969 11.98355469 34.44101563 13.09601563 34.4609375 14.2421875 C33.83694323 18.25638683 32.94732271 19.67215688 29.96484375 22.43359375 C27.02178168 23.13609009 24.16043172 23.03999391 21.1484375 22.95703125 C20.29556656 22.95232819 19.44269562 22.94762512 18.5639801 22.94277954 C15.84260909 22.92145279 13.12319294 22.86485236 10.40234375 22.80859375 C8.56707566 22.79208459 6.73178676 22.77773705 4.89648438 22.765625 C-8.44349634 22.63081372 -8.44349634 22.63081372 -12.03515625 21.43359375 C-13.60829809 18.28731007 -13.30211951 14.94777887 -13.34765625 11.49609375 C-13.37666016 10.76712891 -13.40566406 10.03816406 -13.43554688 9.28710938 C-13.49884937 3.97456906 -13.49884937 3.97456906 -11.57324219 1.72802734 C-7.76878661 -0.21225964 -4.21451383 -0.01464358 0 0 Z " fill="#E87604" transform="translate(31.03515625,92.56640625)"/>
<path d="M0 0 C1.2757489 -0.00786278 1.2757489 -0.00786278 2.57727051 -0.0158844 C4.37262888 -0.02229816 6.16802931 -0.02097595 7.96337891 -0.01245117 C10.70941943 -0.00393519 13.45338336 -0.03271932 16.19921875 -0.06445312 C17.94531188 -0.06606513 19.69140868 -0.06548762 21.4375 -0.0625 C22.25738403 -0.07373398 23.07726807 -0.08496796 23.92199707 -0.09654236 C27.75141698 -0.04974224 29.61305088 -0.02022788 32.75024414 2.33032227 C34.96911475 5.5083057 34.3675861 7.51069125 33.76953125 11.18359375 C32.7002861 15.55157396 30.94266503 19.78870303 27.21875 22.43359375 C24.38358182 22.73189427 21.77262076 22.8539793 18.9375 22.83203125 C17.7226593 22.83633652 17.7226593 22.83633652 16.48327637 22.84072876 C14.77188416 22.84276917 13.06046862 22.83724084 11.34912109 22.82470703 C8.7283111 22.80865232 6.10904323 22.82455569 3.48828125 22.84375 C1.82551743 22.84176756 0.16275456 22.83792388 -1.5 22.83203125 C-2.28443481 22.83810394 -3.06886963 22.84417664 -3.8770752 22.85043335 C-9.24711105 22.78095113 -9.24711105 22.78095113 -11.77172852 21.13916016 C-13.54729379 18.13937806 -13.25185959 14.81679137 -13.21875 11.43359375 C-13.23873047 10.70914063 -13.25871094 9.9846875 -13.27929688 9.23828125 C-13.27446489 4.00041311 -13.27446489 4.00041311 -11.29907227 1.73022461 C-7.62384582 -0.16244752 -4.04101499 -0.01446907 0 0 Z " fill="#E97605" transform="translate(30.78125,32.56640625)"/>
<path d="M0 0 C0.33 0.66 0.66 1.32 1 2 C0.67 2.66 0.34 3.32 0 4 C-3.96 4 -7.92 4 -12 4 C-12 6.97 -12 9.94 -12 13 C-11.25218262 12.67402832 -10.50436523 12.34805664 -9.73388672 12.01220703 C-4.5406161 10.60438043 0.38632483 10.75371339 5.7421875 10.8046875 C7.42745041 10.80893234 7.42745041 10.80893234 9.14675903 10.81326294 C12.72294927 10.82442697 16.2988859 10.84952499 19.875 10.875 C22.30468387 10.88503467 24.73437169 10.89415967 27.1640625 10.90234375 C33.10946102 10.92435396 39.05471239 10.95779411 45 11 C42.44363914 13.55636086 41.45895622 13.26835607 37.90771484 13.31884766 C36.31629166 13.34865219 36.31629166 13.34865219 34.69271851 13.37905884 C33.54373077 13.39061005 32.39474304 13.40216125 31.2109375 13.4140625 C30.03737701 13.43342865 28.86381653 13.4527948 27.6546936 13.4727478 C23.89487039 13.53267664 20.13501677 13.57898246 16.375 13.625 C13.83071558 13.6631675 11.28644425 13.70221849 8.7421875 13.7421875 C2.49490759 13.83838905 -3.75245072 13.92339738 -10 14 C-10.02313273 26.22153256 -10.04091986 38.44305994 -10.05181217 50.66460991 C-10.05703895 56.33907721 -10.06413291 62.01352958 -10.07543945 67.68798828 C-10.08627557 73.16037265 -10.09227838 78.63274261 -10.09487724 84.10513687 C-10.09673018 86.19680127 -10.10034829 88.28846484 -10.10573006 90.38012314 C-10.11295007 93.30144731 -10.11399053 96.22271136 -10.11352539 99.14404297 C-10.11712067 100.01582184 -10.12071594 100.88760071 -10.12442017 101.78579712 C-10.23911775 106.02729246 -10.23911775 106.02729246 -9 110 C-7.77369873 110.01981934 -6.54739746 110.03963867 -5.28393555 110.06005859 C-0.73831492 110.13607619 3.80698399 110.22479947 8.35229492 110.31738281 C10.32032931 110.35568847 12.2884341 110.39053855 14.2565918 110.421875 C17.08407772 110.46749111 19.91107834 110.52549098 22.73828125 110.5859375 C23.61962234 110.59748871 24.50096344 110.60903992 25.40901184 110.62094116 C26.22963608 110.64081085 27.05026031 110.66068054 27.89575195 110.68115234 C28.61745071 110.69447601 29.33914948 110.70779968 30.0827179 110.7215271 C32 111 32 111 35 113 C35.875 114.8125 35.875 114.8125 36 117 C33.73846154 121.63076923 33.73846154 121.63076923 31 123 C27.93514732 123.12385518 24.89397942 123.18847776 21.828125 123.203125 C20.91295105 123.20882507 19.9977771 123.21452515 19.05487061 123.22039795 C17.11471719 123.22985526 15.17454765 123.23638483 13.234375 123.24023438 C10.27575312 123.24991573 7.31783303 123.28092206 4.359375 123.3125 C2.47396246 123.31903252 0.58854494 123.32428201 -1.296875 123.328125 C-2.17833191 123.3404718 -3.05978882 123.3528186 -3.96795654 123.36553955 C-10.61470552 123.34162057 -14.66055858 122.2094287 -19.62869263 117.51739502 C-23.00574957 113.33037259 -22.70270633 109.05158349 -22.64697266 103.8671875 C-22.65573425 102.86157776 -22.66449585 101.85596802 -22.67352295 100.81988525 C-22.69548241 97.5044812 -22.68097555 94.190417 -22.6640625 90.875 C-22.6674316 88.56624089 -22.672285 86.25748351 -22.67855835 83.94873047 C-22.68592504 79.11343475 -22.67523008 74.2786013 -22.65185547 69.44335938 C-22.62336857 63.24908654 -22.63977352 57.05589692 -22.66971779 50.86166382 C-22.68779579 46.09521338 -22.68203025 41.32901925 -22.66907883 36.56256104 C-22.66574625 34.27882763 -22.66982665 31.99507087 -22.68147659 29.71136475 C-22.69419286 26.51788807 -22.67479539 23.32615917 -22.64697266 20.1328125 C-22.65709381 19.19133362 -22.66721497 18.24985474 -22.67764282 17.27984619 C-22.60743252 12.92429971 -22.41859884 9.94190218 -19.62362671 6.47998047 C-13.66689889 0.84938958 -7.88263777 0.40675533 0 0 Z M-18 10 C-18 11.32 -18 12.64 -18 14 C-17.34 14 -16.68 14 -16 14 C-16.33 15.32 -16.66 16.64 -17 18 C-17.66 17.34 -18.32 16.68 -19 16 C-24.01660262 21.01660262 -21.21067018 40.97823963 -21.23828125 48.1171875 C-21.24235678 49.0143964 -21.2464323 49.9116053 -21.25063133 50.83600235 C-21.27133148 55.56970222 -21.28571118 60.30337433 -21.29516602 65.03710938 C-21.30630202 69.91273821 -21.34082927 74.7879197 -21.38033772 79.66338921 C-21.40646999 83.43123216 -21.41485396 87.19896663 -21.41844749 90.96689224 C-21.42330851 92.76500659 -21.43490866 94.56311625 -21.45348549 96.3611412 C-21.47784441 98.87117462 -21.4769203 101.38002122 -21.4699707 103.89013672 C-21.48278076 104.62582382 -21.49559082 105.36151093 -21.50878906 106.11949158 C-21.45755595 111.20516731 -20.26789712 114.12546377 -17 118 C-11.93256469 121.42650248 -5.73932309 121.43139686 0.171875 121.36328125 C1.01671448 121.36377975 1.86155396 121.36427826 2.73199463 121.36479187 C4.5034828 121.36246684 6.27497527 121.35283207 8.04638672 121.33618164 C10.75648421 121.3124432 13.46560511 121.31565066 16.17578125 121.32226562 C17.90365169 121.31669256 19.631518 121.30958502 21.359375 121.30078125 C22.16671082 121.30169266 22.97404663 121.30260406 23.80584717 121.30354309 C27.66266703 121.25482975 30.73432729 121.19477235 34 119 C34.042721 117.33388095 34.04063832 115.66617115 34 114 C32.45769023 112.45769023 30.9959029 112.83752513 28.84741211 112.79467773 C27.96657455 112.77473251 27.085737 112.75478729 26.1782074 112.73423767 C25.22092239 112.71752518 24.26363739 112.70081268 23.27734375 112.68359375 C22.30213272 112.66281265 21.32692169 112.64203156 20.32215881 112.62062073 C17.1940137 112.55501588 14.06578178 112.49618972 10.9375 112.4375 C8.8222565 112.39432517 6.70702191 112.35071123 4.59179688 112.30664062 C-0.60537587 112.19932345 -5.80263577 112.0975778 -11 112 C-12.30944045 108.07167866 -12.16927327 104.3138949 -12.18945312 100.2175293 C-12.19774643 99.31964691 -12.20603973 98.42176453 -12.21458435 97.49667358 C-12.23198853 95.54546054 -12.24715434 93.59422655 -12.26036072 91.64298058 C-12.28139047 88.55358313 -12.30841518 85.46429006 -12.33703613 82.37495422 C-12.39674839 75.81250968 -12.4488688 69.25001626 -12.5 62.6875 C-12.55927243 55.09341024 -12.62165314 47.49937154 -12.69187927 39.90537453 C-12.71840031 36.86431646 -12.73925011 33.82325313 -12.7598877 30.78215027 C-12.77649809 28.91164914 -12.79337057 27.04115031 -12.81054688 25.1706543 C-12.81473129 24.3273204 -12.81891571 23.48398651 -12.82322693 22.61509705 C-12.86897043 18.30355848 -13.1458917 14.24611322 -14 10 C-15.32 10 -16.64 10 -18 10 Z " fill="#D4751A" transform="translate(26,12)"/>
<path d="M0 0 C0.67767426 -0.0004985 1.35534851 -0.00099701 2.05355835 -0.00151062 C3.4807225 0.00082299 4.90789131 0.01050952 6.33496094 0.02709961 C8.5231585 0.05077823 10.71014363 0.04764533 12.8984375 0.04101562 C23.61922694 0.08407069 23.61922694 0.08407069 25.8984375 2.36328125 C26.27648385 8.43722587 24.41461932 14.42946422 20.8984375 19.36328125 C17.74039099 22.24774013 15.6374928 22.74676241 11.3984375 22.76171875 C10.3465625 22.76558594 9.2946875 22.76945312 8.2109375 22.7734375 C6.57125 22.75603516 6.57125 22.75603516 4.8984375 22.73828125 C3.8053125 22.74988281 2.7121875 22.76148437 1.5859375 22.7734375 C0.008125 22.76763672 0.008125 22.76763672 -1.6015625 22.76171875 C-2.560625 22.75833496 -3.5196875 22.75495117 -4.5078125 22.75146484 C-7.56083213 22.29454643 -8.93679634 21.54869403 -11.1015625 19.36328125 C-11.50894678 16.53555504 -11.66172294 14.18079519 -11.6015625 11.36328125 C-11.61703125 10.63882813 -11.6325 9.914375 -11.6484375 9.16796875 C-11.60962738 3.90919735 -11.60962738 3.90919735 -9.51220703 1.65551758 C-6.23066709 -0.10356597 -3.71414347 -0.00875196 0 0 Z " fill="#E97605" transform="translate(29.1015625,62.63671875)"/>
<path d="M0 0 C6.97830168 6.64814547 10.82939656 13.82998735 11.31640625 23.48046875 C11.19985912 27.2947385 11.08710009 28.38015907 8.69140625 31.48046875 C5.12841709 33.02959447 3.47360188 33.00253679 -0.18359375 31.73046875 C-3.06999658 28.667203 -3.76725523 25.86784829 -4.55859375 21.79296875 C-5.73308398 16.74450551 -6.86555607 13.89000852 -11.18359375 10.73046875 C-16.14452683 7.69338336 -21.55770748 8.25536039 -27.18359375 8.73046875 C-32.49508248 10.43773298 -34.35756506 13.02042093 -37.18359375 17.73046875 C-37.51359375 17.73046875 -37.84359375 17.73046875 -38.18359375 17.73046875 C-38.18359375 16.08046875 -38.18359375 14.43046875 -38.18359375 12.73046875 C-38.84359375 12.40046875 -39.50359375 12.07046875 -40.18359375 11.73046875 C-39.85359375 11.07046875 -39.52359375 10.41046875 -39.18359375 9.73046875 C-38.52359375 9.73046875 -37.86359375 9.73046875 -37.18359375 9.73046875 C-37.18359375 9.07046875 -37.18359375 8.41046875 -37.18359375 7.73046875 C-36.34054687 7.52550781 -35.4975 7.32054687 -34.62890625 7.109375 C-33.53320312 6.83996094 -32.4375 6.57054687 -31.30859375 6.29296875 C-30.21804688 6.02613281 -29.1275 5.75929688 -28.00390625 5.484375 C-25.25874654 4.85182095 -25.25874654 4.85182095 -23.18359375 3.73046875 C-21.23046875 4.2890625 -21.23046875 4.2890625 -18.93359375 5.16796875 C-15.20359985 6.49365317 -12.18071501 7.03793962 -8.18359375 6.73046875 C-8.51359375 5.08046875 -8.84359375 3.43046875 -9.18359375 1.73046875 C-8.52359375 1.40046875 -7.86359375 1.07046875 -7.18359375 0.73046875 C-6.85359375 0.07046875 -6.52359375 -0.58953125 -6.18359375 -1.26953125 C-6.84359375 -1.26953125 -7.50359375 -1.26953125 -8.18359375 -1.26953125 C-8.18359375 -1.92953125 -8.18359375 -2.58953125 -8.18359375 -3.26953125 C-9.35921875 -2.99109375 -9.35921875 -2.99109375 -10.55859375 -2.70703125 C-13.18359375 -2.26953125 -13.18359375 -2.26953125 -15.18359375 -3.26953125 C-16.95129702 -3.3919326 -18.72419837 -3.44504278 -20.49609375 -3.45703125 C-21.91341797 -3.47830078 -21.91341797 -3.47830078 -23.359375 -3.5 C-26.32766257 -3.2577746 -28.4922654 -2.50979732 -31.18359375 -1.26953125 C-31.18359375 -1.92953125 -31.18359375 -2.58953125 -31.18359375 -3.26953125 C-32.32828125 -2.74359375 -32.32828125 -2.74359375 -33.49609375 -2.20703125 C-36.18359375 -1.26953125 -36.18359375 -1.26953125 -39.18359375 -2.26953125 C-26.2410039 -9.17438688 -11.87711857 -9.71764247 0 0 Z " fill="#E4770C" transform="translate(413.18359375,20.26953125)"/>
<path d="M0 0 C0.6084375 0.27972656 1.216875 0.55945312 1.84375 0.84765625 C2.7203125 1.24855469 3.596875 1.64945313 4.5 2.0625 C5.49773437 2.52011719 6.49546875 2.97773437 7.5234375 3.44921875 C9.99846215 4.5532466 12.4709473 5.61589125 14.9765625 6.64453125 C27.07662563 11.65594307 37.40432924 17.57460361 43.875 29.4375 C46.69118062 38.08840213 46.30918097 49.58257545 42.38671875 57.7578125 C37.92079981 64.97876312 32.14109775 71.06109749 24 74 C23.34 73.67 22.68 73.34 22 73 C22.33 72.34 22.66 71.68 23 71 C24.32 71 25.64 71 27 71 C27 70.34 27 69.68 27 69 C27.66 69 28.32 69 29 69 C29 67.68 29 66.36 29 65 C29.495 63.515 29.495 63.515 30 62 C30.99 61.67 31.98 61.34 33 61 C33.33 61.66 33.66 62.32 34 63 C37.54651103 61.81782966 37.87284312 61.18183089 39.625 58 C43.14885909 50.74063864 42.89900688 42.91418821 43 35 C41.35 35 39.7 35 38 35 C37.93941406 34.37351563 37.87882812 33.74703125 37.81640625 33.1015625 C37.73261719 32.28429687 37.64882813 31.46703125 37.5625 30.625 C37.48128906 29.81289062 37.40007812 29.00078125 37.31640625 28.1640625 C37.10909886 25.95727195 37.10909886 25.95727195 36 24 C36.33 23.34 36.66 22.68 37 22 C34.69 22.33 32.38 22.66 30 23 C29.34 21.68 28.68 20.36 28 19 C27.40267181 21.76264289 27 24.16032769 27 27 C27.66 27.33 28.32 27.66 29 28 C30.61287128 31.81995829 31.20681069 34.05432816 30 38 C29.525625 36.80375 29.05125 35.6075 28.5625 34.375 C24.27044134 25.85807733 14.38915242 22.61739405 6 19.25 C4.12255711 18.49038508 2.24741084 17.72506042 0.375 16.953125 C-0.85089844 16.46054199 -0.85089844 16.46054199 -2.1015625 15.95800781 C-4 15 -4 15 -5 13 C-4.18015625 13.20496094 -3.3603125 13.40992187 -2.515625 13.62109375 C-1.43796875 13.89050781 -0.3603125 14.15992187 0.75 14.4375 C1.81734375 14.70433594 2.8846875 14.97117187 3.984375 15.24609375 C4.97953125 15.49488281 5.9746875 15.74367188 7 16 C8.09054687 16.35771484 8.09054687 16.35771484 9.203125 16.72265625 C11.34176021 17.25975431 11.34176021 17.25975431 14 15 C13.814375 14.360625 13.62875 13.72125 13.4375 13.0625 C13.293125 12.381875 13.14875 11.70125 13 11 C13.33 10.67 13.66 10.34 14 10 C12.02 9.34 10.04 8.68 8 8 C8 7.34 8 6.68 8 6 C6.68 6 5.36 6 4 6 C4 5.34 4 4.68 4 4 C2.68 3.67 1.36 3.34 0 3 C0 2.01 0 1.02 0 0 Z " fill="#E77607" transform="translate(380,59)"/>
<path d="M0 0 C3.19861123 3.19861123 3.25479188 7.39687132 4.12109375 11.73828125 C5.1948228 15.72300904 6.4054113 18.79787105 9.76171875 21.328125 C16.2685637 24.44296356 21.60850769 25.92603254 28.6875 23.875 C32.72164769 22.37262776 35.16137442 20.26872037 38 17 C38.66 16.67 39.32 16.34 40 16 C38.60870061 20.86954788 36.13332746 23.16340273 32 26 C29.125 26.3125 29.125 26.3125 27 26 C27 26.66 27 27.32 27 28 C24.36 28 21.72 28 19 28 C19 27.34 19 26.68 19 26 C17.7625 26.020625 16.525 26.04125 15.25 26.0625 C12.29785395 26.07291321 9.85723652 25.74076502 7 25 C3.88214887 25.64644661 3.88214887 25.64644661 3 28 C3.66 28.33 4.32 28.66 5 29 C4.67 29.99 4.34 30.98 4 32 C4.99 32.66 5.98 33.32 7 34 C7 34.66 7 35.32 7 36 C0.82604364 34.12910413 -3.46143518 30.57460064 -6.74609375 25.078125 C-10.4838029 17.72819335 -13.13647194 11.35460451 -12 3 C-8.44659917 -1.90124253 -5.34073533 -2.6018967 0 0 Z " fill="#E17810" transform="translate(369,95)"/>
<path d="M0 0 C1.18803223 -0.01260864 2.37606445 -0.02521729 3.60009766 -0.03820801 C4.87933105 -0.03011108 6.15856445 -0.02201416 7.4765625 -0.01367188 C8.79317871 -0.01749878 10.10979492 -0.02132568 11.46630859 -0.02526855 C14.25051684 -0.03115911 17.03421099 -0.02261601 19.81835938 -0.00390625 C23.38305583 0.01888437 26.94654768 0.00575872 30.51119995 -0.01819611 C33.9164168 -0.03614518 37.32131144 -0.02356965 40.7265625 -0.01367188 C42.6454126 -0.02581726 42.6454126 -0.02581726 44.60302734 -0.03820801 C46.38507568 -0.01929504 46.38507568 -0.01929504 48.203125 0 C49.24807129 0.00318237 50.29301758 0.00636475 51.36962891 0.00964355 C54.80863176 0.64903993 56.0080427 1.75823462 58.1015625 4.51757812 C58.3515625 7.76757813 58.3515625 7.76757813 58.1015625 10.51757812 C57.4415625 10.84757812 56.7815625 11.17757813 56.1015625 11.51757812 C56.1015625 8.87757812 56.1015625 6.23757812 56.1015625 3.51757812 C48.31312853 3.44814257 40.52476673 3.39479991 32.73610115 3.36214161 C29.1196921 3.34646912 25.50349442 3.32520259 21.88720703 3.29125977 C18.39886262 3.25872182 14.91072182 3.24073705 11.4222374 3.2329464 C9.44012481 3.22468544 7.45809441 3.20125725 5.47610474 3.1776886 C4.27501068 3.17746201 3.07391663 3.17723541 1.83642578 3.17700195 C0.77497345 3.17034012 -0.28647888 3.16367828 -1.38009644 3.15681458 C-2.21114899 3.27586655 -3.04220154 3.39491852 -3.8984375 3.51757812 C-4.8884375 5.00257812 -4.8884375 5.00257812 -5.8984375 6.51757812 C-6.5584375 6.51757812 -7.2184375 6.51757812 -7.8984375 6.51757812 C-7.5684375 42.48757812 -7.2384375 78.45757812 -6.8984375 115.51757812 C13.8915625 115.51757812 34.6815625 115.51757812 56.1015625 115.51757812 C56.1015625 113.53757812 56.1015625 111.55757813 56.1015625 109.51757812 C56.7615625 109.51757812 57.4215625 109.51757812 58.1015625 109.51757812 C57.7890625 112.89257812 57.7890625 112.89257812 57.1015625 116.51757812 C53.66507084 118.80857257 52.36390338 118.77864061 48.31665039 118.80810547 C47.12854263 118.82086517 45.94043488 118.83362488 44.71632385 118.84677124 C43.43192917 118.84899689 42.14753448 118.85122253 40.82421875 118.85351562 C38.84717201 118.86350082 38.84717201 118.86350082 36.83018494 118.87368774 C34.04015834 118.88566002 31.25025555 118.8893686 28.46020508 118.88818359 C24.88772144 118.88798031 21.31603247 118.91529126 17.74373722 118.94972801 C14.33305205 118.97733223 10.92251425 118.97614578 7.51171875 118.97851562 C6.2293483 118.99288666 4.94697784 119.00725769 3.62574768 119.02206421 C2.43448776 119.01591095 1.24322784 119.00975769 0.01586914 119.00341797 C-1.03209335 119.00626801 -2.08005585 119.00911804 -3.15977478 119.01205444 C-5.8984375 118.51757812 -5.8984375 118.51757812 -8.23573303 117.14273071 C-10.87637182 112.97357144 -10.45486844 108.86574711 -10.41601562 104.02929688 C-10.4230249 102.96224518 -10.43003418 101.89519348 -10.43725586 100.79580688 C-10.45487465 97.26529999 -10.44319867 93.73559331 -10.4296875 90.20507812 C-10.43238128 87.75414882 -10.43626274 85.30322056 -10.44128418 82.85229492 C-10.44718452 77.71425202 -10.43859862 72.57648716 -10.41992188 67.43847656 C-10.39713251 60.84726328 -10.41025265 54.25670146 -10.43421173 47.66551208 C-10.44865494 42.6040759 -10.4440704 37.54279457 -10.43370056 32.48135376 C-10.43102921 30.05083133 -10.4343173 27.62029492 -10.44361877 25.18978882 C-10.45375957 21.79476597 -10.43831642 18.40080312 -10.41601562 15.00585938 C-10.42411255 13.99794342 -10.43220947 12.99002747 -10.44055176 11.9515686 C-10.35877779 5.24340192 -10.35877779 5.24340192 -8.23474121 1.89440918 C-5.29655158 0.16287457 -3.4072369 0.0103767 0 0 Z " fill="#CA7B2D" transform="translate(486.8984375,14.482421875)"/>
<path d="M0 0 C2.875 -0.125 2.875 -0.125 6 0 C8.53649481 2.53649481 8.33647209 3.7297356 8.5625 7.25 C8.85467213 11.22041051 9.25890156 15.08276537 10 19 C10.66 19 11.32 19 12 19 C12 19.66 12 20.32 12 21 C12.99 21 13.98 21 15 21 C15 21.99 15 22.98 15 24 C16.32 24.33 17.64 24.66 19 25 C19 25.66 19 26.32 19 27 C20.32 27 21.64 27 23 27 C23 27.66 23 28.32 23 29 C24.423125 29.2165625 24.423125 29.2165625 25.875 29.4375 C29 30 29 30 31 31 C30.67 31.66 30.34 32.32 30 33 C29.67 33.99 29.34 34.98 29 36 C29.99 36.495 29.99 36.495 31 37 C27.49223216 38.60355101 24.85645121 39.22036864 21 39 C20.67 38.34 20.34 37.68 20 37 C17.65613191 36.08968728 17.65613191 36.08968728 14.9375 35.375 C14.01839844 35.11460938 13.09929687 34.85421875 12.15234375 34.5859375 C11.44207031 34.39257812 10.73179687 34.19921875 10 34 C10 33.34 10 32.68 10 32 C9.360625 31.731875 8.72125 31.46375 8.0625 31.1875 C6 30 6 30 5 27 C4.154375 26.154375 3.30875 25.30875 2.4375 24.4375 C1.633125 23.633125 0.82875 22.82875 0 22 C0 21.34 0 20.68 0 20 C-0.66 20 -1.32 20 -2 20 C-2.125 13.375 -2.125 13.375 -1 10 C-1.66 10 -2.32 10 -3 10 C-3 7.69 -3 5.38 -3 3 C-2.01 2.67 -1.02 2.34 0 2 C0 1.34 0 0.68 0 0 Z " fill="#E97605" transform="translate(365,38)"/>
<path d="M0 0 C2.97 0.495 2.97 0.495 6 1 C6.33 5.29 6.66 9.58 7 14 C7.66 14 8.32 14 9 14 C8.69320312 14.56460938 8.38640625 15.12921875 8.0703125 15.7109375 C6.98609049 18.02974807 6.4016568 20.12547013 5.875 22.625 C5.62363281 23.78902344 5.62363281 23.78902344 5.3671875 24.9765625 C4.94048296 26.98522956 4.94048296 26.98522956 5 29 C5.66 29 6.32 29 7 29 C7.33 26.69 7.66 24.38 8 22 C8.66 22 9.32 22 10 22 C10 21.34 10 20.68 10 20 C11.32 19.67 12.64 19.34 14 19 C14 18.34 14 17.68 14 17 C14.66 17 15.32 17 16 17 C15.938125 16.319375 15.87625 15.63875 15.8125 14.9375 C16.05868263 11.08063875 17.35802162 8.48920406 19 5 C19.66 5 20.32 5 21 5 C19.67810929 11.58870825 17.81786258 17.68840591 15.4453125 23.96875 C14.93108231 25.34927551 14.93108231 25.34927551 14.40646362 26.75769043 C13.68475671 28.69156241 12.96019548 30.62437137 12.23291016 32.55615234 C11.12899479 35.48938538 10.03447678 38.42599193 8.94140625 41.36328125 C8.2349259 43.25281024 7.52791226 45.14213993 6.8203125 47.03125 C6.49725128 47.89713745 6.17419006 48.7630249 5.84133911 49.65515137 C3.75113142 55.19547386 1.46437569 60.61575896 -1 66 C-1.99 65.67 -2.98 65.34 -4 65 C-1.292586 44.29065785 1.87303572 23.64919158 5 3 C3.02 3 1.04 3 -1 3 C-0.67 2.01 -0.34 1.02 0 0 Z " fill="#E5760A" transform="translate(65,84)"/>
<path d="M0 0 C1.32 0 2.64 0 4 0 C3.86948242 0.88333008 3.73896484 1.76666016 3.60449219 2.67675781 C0.68564912 22.44412409 -2.19579857 42.21599027 -5 62 C-1.535 61.505 -1.535 61.505 2 61 C2 61.66 2 62.32 2 63 C-0.64 63.33 -3.28 63.66 -6 64 C-7.10977901 60.67066298 -7.13301537 58.12771692 -7.125 54.625 C-7.12886719 52.94277344 -7.12886719 52.94277344 -7.1328125 51.2265625 C-7.01423003 48.34570591 -6.59174128 45.80960623 -6 43 C-5.93733488 41.56371543 -5.91313653 40.1249445 -5.9375 38.6875 C-5.958125 37.470625 -5.97875 36.25375 -6 35 C-8.97675459 38.09327895 -8.97675459 38.09327895 -10 42 C-10.639375 42.226875 -11.27875 42.45375 -11.9375 42.6875 C-14.23876958 43.83876445 -14.23876958 43.83876445 -14.75 46.4375 C-15.04854998 49.06852628 -15.04854998 49.06852628 -15 52 C-15.99 52.495 -15.99 52.495 -17 53 C-17 55.31 -17 57.62 -17 60 C-19.475 60.495 -19.475 60.495 -22 61 C-20.01247344 54.11800499 -17.77256905 47.3710444 -15.3125 40.64453125 C-14.96872314 39.69865646 -14.62494629 38.75278168 -14.27075195 37.77824402 C-13.5493696 35.79543536 -12.82661512 33.8131254 -12.10253906 31.83129883 C-10.99959075 28.81137945 -9.90182635 25.78961228 -8.8046875 22.76757812 C-8.09926455 20.83061762 -7.39354555 18.8937649 -6.6875 16.95703125 C-6.36241455 16.0620845 -6.0373291 15.16713776 -5.70239258 14.24507141 C-3.93907245 9.4274902 -2.07078909 4.69392135 0 0 Z " fill="#D9791C" transform="translate(83,0)"/>
<path d="M0 0 C1.32 0.33 2.64 0.66 4 1 C2.35 2.65 0.7 4.3 -1 6 C-0.31164062 6.70962891 -0.31164062 6.70962891 0.390625 7.43359375 C7.17642188 14.74685804 11.11831392 22.42650736 11.1875 32.5 C11.20167969 33.4384375 11.21585937 34.376875 11.23046875 35.34375 C11 38 11 38 9 42 C9 38.04 9 34.08 9 30 C8.34 30 7.68 30 7 30 C6.15901344 25.98195309 5.94595055 22.98196457 7 19 C6.01 19 5.02 19 4 19 C3.34 19.66 2.68 20.32 2 21 C1.34 20.67 0.68 20.34 0 20 C0.04125 21.216875 0.0825 22.43375 0.125 23.6875 C0.13764468 27.29123366 -0.63078058 29.66252767 -2 33 C-2.04022391 35.3329866 -2.04320247 37.66706666 -2 40 C-2.33 40.99 -2.66 41.98 -3 43 C-5.0625 43.6875 -5.0625 43.6875 -7 44 C-6.67 43.2575 -6.34 42.515 -6 41.75 C-4.51585572 36.18445894 -3.51436159 29.44856337 -5.86328125 23.99609375 C-7.0357146 22.24016243 -7.0357146 22.24016243 -9 20 C-9.495 18.515 -9.495 18.515 -10 17 C-16.8503935 13.59099803 -24.63543101 13.48051777 -32.125 13.3125 C-35.71375 13.209375 -39.3025 13.10625 -43 13 C-43 25.54 -43 38.08 -43 51 C-43.33 51 -43.66 51 -44 51 C-44 37.8 -44 24.6 -44 11 C-40.08125 10.9175 -36.1625 10.835 -32.125 10.75 C-30.30379639 10.69537598 -30.30379639 10.69537598 -28.44580078 10.63964844 C-21.12424303 10.56577755 -15.55357194 11.71116361 -9 15 C-8.55011719 14.52949219 -8.10023438 14.05898437 -7.63671875 13.57421875 C-5.87983185 11.88442061 -4.21235068 10.99174341 -2 10 C-2.495 9.505 -2.495 9.505 -3 9 C-3.04063832 7.33382885 -3.042721 5.66611905 -3 4 C-2.34 3.67 -1.68 3.34 -1 3 C-0.67 2.01 -0.34 1.02 0 0 Z " fill="#E2790F" transform="translate(302,68)"/>
<path d="M0 0 C0.78950546 -0.0038269 1.57901093 -0.00765381 2.3924408 -0.01159668 C4.06429315 -0.01431593 5.73618803 -0.00695369 7.40795898 0.00976562 C9.93247963 0.03097806 12.45408921 0.01007142 14.97851562 -0.015625 C26.79169997 -0.03638438 37.04839614 0.91659827 45.90234375 9.53125 C44.91234375 9.86125 43.92234375 10.19125 42.90234375 10.53125 C42.12890625 9.603125 42.12890625 9.603125 41.33984375 8.65625 C38.3577576 6.05648258 35.71788174 5.41175877 31.90234375 4.53125 C31.90234375 3.87125 31.90234375 3.21125 31.90234375 2.53125 C18.37234375 2.53125 4.84234375 2.53125 -9.09765625 2.53125 C-9.09765625 40.15125 -9.09765625 77.77125 -9.09765625 116.53125 C22.89543712 118.25533731 22.89543712 118.25533731 36.90234375 113.53125 C37.89234375 113.86125 38.88234375 114.19125 39.90234375 114.53125 C31.36390476 119.3913793 22.65829678 119.14653301 13.13232422 119.05273438 C10.51177264 119.03112158 7.89391021 119.05269776 5.2734375 119.078125 C3.60025439 119.07548455 1.92707295 119.07036545 0.25390625 119.0625 C-0.91487564 119.07464539 -0.91487564 119.07464539 -2.10726929 119.08703613 C-5.26517901 119.03235825 -7.59423865 118.84571436 -10.30178833 117.15441895 C-13.13275705 113.01931015 -12.65459194 108.94225069 -12.61523438 104.04296875 C-12.62224365 102.97591705 -12.62925293 101.90886536 -12.63647461 100.80947876 C-12.6540934 97.27897186 -12.64241742 93.74926519 -12.62890625 90.21875 C-12.63160003 87.7678207 -12.63548149 85.31689244 -12.64050293 82.8659668 C-12.64640327 77.7279239 -12.63781737 72.59015904 -12.61914062 67.45214844 C-12.59635126 60.86093515 -12.6094714 54.27037334 -12.63343048 47.67918396 C-12.64787369 42.61774778 -12.64328915 37.55646644 -12.63291931 32.49502563 C-12.63024796 30.06450321 -12.63353605 27.63396679 -12.64283752 25.20346069 C-12.65297832 21.80843784 -12.63753517 18.414475 -12.61523438 15.01953125 C-12.6233313 14.0116153 -12.63142822 13.00369934 -12.63977051 11.96524048 C-12.55730244 5.20013472 -12.55730244 5.20013472 -10.2950592 1.90808105 C-6.99677012 -0.15853437 -3.7723395 -0.04050023 0 0 Z " fill="#C97A2E" transform="translate(257.09765625,14.46875)"/>
<path d="M0 0 C0.33 0 0.66 0 1 0 C1 12.54 1 25.08 1 38 C12.66769048 37.88141612 12.66769048 37.88141612 24.33496094 37.72973633 C25.80142563 37.72097165 27.26789763 37.71332767 28.734375 37.70703125 C29.49121582 37.69168335 30.24805664 37.67633545 31.02783203 37.66052246 C34.28107268 37.65890768 36.58586499 37.7691983 39.45800781 39.36987305 C41.55463582 41.58633682 41.92751564 42.95565691 42 46 C40.8584081 48.2831838 39.80987317 50.19012683 38 52 C35.26129758 52.08857875 32.54725017 52.11530707 29.80859375 52.09765625 C29.08224731 52.09664917 28.35590088 52.09564209 27.60754395 52.09460449 C24.88417999 52.08935716 22.16083847 52.075396 19.4375 52.0625 C13.353125 52.041875 7.26875 52.02125 1 52 C1 64.54 1 77.08 1 90 C4.50238281 89.96519531 8.00476563 89.93039063 11.61328125 89.89453125 C14.99893376 89.87114662 18.38457734 89.85292376 21.77026367 89.83520508 C24.12642431 89.82010253 26.48255677 89.79961909 28.83862305 89.77368164 C32.22191312 89.73736344 35.60483208 89.72028833 38.98828125 89.70703125 C40.57277824 89.68380547 40.57277824 89.68380547 42.18928528 89.66011047 C43.66047066 89.65977058 43.66047066 89.65977058 45.16137695 89.65942383 C46.45710381 89.64943108 46.45710381 89.64943108 47.77900696 89.63923645 C50.45182678 90.07339178 51.32340113 90.9298271 53 93 C45.61258753 92.88271584 38.22533093 92.75787986 30.83813477 92.62768555 C28.32286504 92.58425994 25.80756437 92.54259071 23.29223633 92.50268555 C19.68561456 92.44516707 16.07914969 92.38142033 12.47265625 92.31640625 C11.34038101 92.29969376 10.20810577 92.28298126 9.04151917 92.26576233 C8.00051559 92.24581711 6.95951202 92.22587189 5.88696289 92.20532227 C4.96540909 92.18977798 4.04385529 92.1742337 3.09437561 92.15821838 C1 92 1 92 0 91 C-0.10110353 88.0546443 -0.13969279 85.1332244 -0.1328125 82.1875 C-0.13376923 81.30344482 -0.13472595 80.41938965 -0.13571167 79.50854492 C-0.13639351 77.63557871 -0.13453893 75.76261014 -0.13037109 73.88964844 C-0.12502289 71.01231612 -0.13031593 68.13513992 -0.13671875 65.2578125 C-0.13605797 63.44270799 -0.13477681 61.62760357 -0.1328125 59.8125 C-0.13483673 58.94584717 -0.13686096 58.07919434 -0.13894653 57.1862793 C-0.11495009 51.11495009 -0.11495009 51.11495009 1 50 C3.6662603 49.91144839 6.30647114 49.88475327 8.97265625 49.90234375 C9.77029892 49.9037587 10.56794159 49.90517365 11.38975525 49.90663147 C13.94737435 49.91224684 16.50490718 49.92480188 19.0625 49.9375 C20.79231645 49.94251302 22.52213426 49.94707627 24.25195312 49.95117188 C28.50133553 49.96222125 32.75065312 49.97949614 37 50 C37.66 47.69 38.32 45.38 39 43 C34.36526054 41.21010883 30.40503341 40.71640377 25.44921875 40.62109375 C24.74980667 40.60409927 24.05039459 40.5871048 23.32978821 40.56959534 C21.11578161 40.51684663 18.90179135 40.47630493 16.6875 40.4375 C14.45544367 40.39356472 12.22353067 40.34695852 9.99165344 40.29469299 C7.97983699 40.24824369 5.96782087 40.21069765 3.95581055 40.17358398 C1 40 1 40 0 39 C-0.08865208 36.1156618 -0.11521296 33.25537842 -0.09765625 30.37109375 C-0.0962413 29.50686295 -0.09482635 28.64263214 -0.09336853 27.75221252 C-0.08775239 24.98060708 -0.07519719 22.2090812 -0.0625 19.4375 C-0.05748708 17.5631522 -0.05292381 15.68880315 -0.04882812 13.81445312 C-0.03777772 9.20960456 -0.0205023 4.60481579 0 0 Z " fill="#CA782F" transform="translate(490,29)"/>
<path d="M0 0 C1.65511996 3.31023993 1.11976771 7.00296721 1.09765625 10.640625 C1.09619598 11.53503296 1.09473572 12.42944092 1.0932312 13.35095215 C1.0894199 15.29675852 1.08329779 17.24256139 1.07516479 19.18835449 C1.06244241 22.26392306 1.05589624 25.3394487 1.05102539 28.41503906 C1.03762738 36.05389616 1.0134149 43.69271248 0.98962402 51.33154297 C0.96993901 57.78348558 0.95427932 64.23541317 0.94406128 70.68737793 C0.93755521 73.72422974 0.92504681 76.7610202 0.91235352 79.79785156 C0.90872235 81.65169215 0.90537045 83.50553332 0.90234375 85.359375 C0.89717743 86.2093103 0.89201111 87.05924561 0.88668823 87.93493652 C0.77331374 92.10031789 0.77331374 92.10031789 2 96 C3.22630127 96.01981934 4.45260254 96.03963867 5.71606445 96.06005859 C10.26168508 96.13607619 14.80698399 96.22479947 19.35229492 96.31738281 C21.32032931 96.35568847 23.2884341 96.39053855 25.2565918 96.421875 C28.08407772 96.46749111 30.91107834 96.52549098 33.73828125 96.5859375 C34.61962234 96.59748871 35.50096344 96.60903992 36.40901184 96.62094116 C37.22963608 96.64081085 38.05026031 96.66068054 38.89575195 96.68115234 C39.61745071 96.69447601 40.33914948 96.70779968 41.0827179 96.7215271 C43 97 43 97 46 99 C46.875 100.8125 46.875 100.8125 47 103 C44.73846154 107.63076923 44.73846154 107.63076923 42 109 C38.93514732 109.12385518 35.89397942 109.18847776 32.828125 109.203125 C31.91295105 109.20882507 30.9977771 109.21452515 30.05487061 109.22039795 C28.11471719 109.22985526 26.17454765 109.23638483 24.234375 109.24023438 C21.27575312 109.24991573 18.31783303 109.28092206 15.359375 109.3125 C13.47396246 109.31903252 11.58854494 109.32428201 9.703125 109.328125 C8.82166809 109.3404718 7.94021118 109.3528186 7.03204346 109.36553955 C1.16401729 109.34442288 -3.10156503 108.47588408 -7.71484375 104.53515625 C-11.04168906 100.52806142 -11.04168906 100.52806142 -10.8125 97.625 C-10.544375 97.08875 -10.27625 96.5525 -10 96 C-9.21875 97.72526042 -8.4375 99.45052083 -7.65625 101.17578125 C-4.65819882 104.47788007 -0.14359265 105.73919964 4.20193481 106.26789856 C6.54261196 106.36047718 8.86483348 106.36416627 11.20703125 106.328125 C12.0542424 106.32625183 12.90145355 106.32437866 13.77433777 106.32244873 C15.55003851 106.3157712 17.32572564 106.30194342 19.10131836 106.28125 C21.82224156 106.24988772 24.54258517 106.24025155 27.26367188 106.234375 C28.99479875 106.22521173 30.72591975 106.21483813 32.45703125 106.203125 C33.26952835 106.19887512 34.08202545 106.19462524 34.91914368 106.19024658 C38.19266644 106.14857709 40.87358562 106.04213813 44 105 C44 103.35 44 101.7 44 100 C43.45098526 99.98969254 42.90197052 99.97938507 42.33631897 99.96876526 C36.64278719 99.86092053 30.94942079 99.74630551 25.25610352 99.62768555 C23.12885993 99.58426577 21.0015799 99.54259607 18.87426758 99.50268555 C15.82361849 99.44515293 12.77315411 99.38141033 9.72265625 99.31640625 C8.76537125 99.29969376 7.80808624 99.28298126 6.8217926 99.26576233 C5.94095505 99.24581711 5.06011749 99.22587189 4.15258789 99.20532227 C3.37315323 99.18977798 2.59371857 99.1742337 1.79066467 99.15821838 C0 99 0 99 -1 98 C-1.10062747 94.99186514 -1.1361474 92.00664971 -1.12939453 88.99804688 C-1.13114685 88.0534108 -1.13289917 87.10877472 -1.13470459 86.13551331 C-1.1391248 82.9965738 -1.13618452 79.85769013 -1.1328125 76.71875 C-1.13348549 74.54781076 -1.13445547 72.3768716 -1.13571167 70.20593262 C-1.13718887 65.64948817 -1.13503337 61.09306328 -1.13037109 56.53662109 C-1.1246738 50.68173414 -1.12795268 44.82689302 -1.13394356 38.97200775 C-1.13754857 34.48719942 -1.13641086 30.00240204 -1.13381577 25.51759338 C-1.13314633 23.35811864 -1.1339755 21.19864291 -1.13629532 19.03916931 C-1.13882086 16.02673692 -1.13498264 13.01437987 -1.12939453 10.00195312 C-1.13141876 9.10009781 -1.13344299 8.19824249 -1.13552856 7.26905823 C-1.11426231 1.11426231 -1.11426231 1.11426231 0 0 Z " fill="#C67931" transform="translate(15,26)"/>
<path d="M0 0 C1 2 1 2 0.3125 4.3125 C-1 7 -1 7 -3.125 9.625 C-5.30982214 11.88811978 -5.30982214 11.88811978 -5 15 C-3.35 14.67 -1.7 14.34 0 14 C0 14.66 0 15.32 0 16 C0.66 16 1.32 16 2 16 C2.144375 17.134375 2.28875 18.26875 2.4375 19.4375 C2.53160156 20.16453125 2.62570312 20.8915625 2.72265625 21.640625 C2.90716174 23.210221 3.06098601 24.78373506 3.18359375 26.359375 C3.56648518 31.01658505 4.17674267 34.11802118 7 38 C7.33 38.66 7.66 39.32 8 40 C7.01 40 6.02 40 5 40 C5 39.34 5 38.68 5 38 C4.34 38 3.68 38 3 38 C1.01902431 33.1135933 0.59025029 28.49745844 0.24609375 23.29296875 C0.24662846 21.03742447 0.24662846 21.03742447 -1 20 C-1.66 20.66 -2.32 21.32 -3 22 C-3 21.01 -3 20.02 -3 19 C-4.32 19 -5.64 19 -7 19 C-7 19.66 -7 20.32 -7 21 C-7.66 21.33 -8.32 21.66 -9 22 C-9.40729228 24.32156597 -9.74438677 26.6568787 -10 29 C-9.34 29 -8.68 29 -8 29 C-8.33 32.3 -8.66 35.6 -9 39 C-8.34 39 -7.68 39 -7 39 C-4 42.46153846 -4 42.46153846 -4 45 C-3.01 45.33 -2.02 45.66 -1 46 C-0.67 46.99 -0.34 47.98 0 49 C2.00016466 50.20882096 2.00016466 50.20882096 4 51 C3.67 51.66 3.34 52.32 3 53 C-3.08326684 51.38972348 -6.20237083 47.053204 -9.26953125 41.84375 C-13.38071418 33.12746109 -13.6655272 22.63171929 -10.4375 13.5625 C-7.94903165 8.20960766 -4.13439544 4.13439544 0 0 Z " fill="#E67504" transform="translate(372,19)"/>
<path d="M0 0 C2.090507 1.78000856 2.89782309 3.23665608 3.26280785 5.96338654 C3.3712622 8.52541544 3.37061544 11.06959685 3.34057617 13.63378906 C3.34101425 14.60973022 3.34145233 15.58567139 3.34190369 16.59118652 C3.33981408 19.81620302 3.31647451 23.04069934 3.29296875 26.265625 C3.28737342 28.50192989 3.28310302 30.73823846 3.28010559 32.97454834 C3.26865194 38.86008865 3.23918005 44.74540682 3.20599365 50.63085938 C3.17530413 56.63668818 3.16160263 62.64255288 3.14648438 68.6484375 C3.11431104 80.43238926 3.06310821 92.21617616 3 104 C2.67 104 2.34 104 2 104 C1.99635437 102.78335159 1.99270874 101.56670319 1.98895264 100.31318665 C1.95202086 88.85070674 1.89426791 77.38849594 1.81609726 65.92622089 C1.77657826 60.0332407 1.74441136 54.14041093 1.72900391 48.24731445 C1.71386664 42.5607515 1.67947278 36.87460198 1.63169098 31.18822289 C1.616847 29.01813537 1.60895726 26.84798884 1.60811615 24.67785072 C1.60575388 21.63935832 1.57873302 18.60201532 1.54589844 15.5637207 C1.5509288 14.66532471 1.55595917 13.76692871 1.56114197 12.84130859 C1.47376207 7.61929216 0.93707244 4.80967284 -3 1 C-4.65 1.33 -6.3 1.66 -8 2 C-10.25165128 7.43684566 -10.30557879 12.35276835 -10.31884766 18.13623047 C-10.32889328 19.1417244 -10.3389389 20.14721832 -10.34928894 21.18318176 C-10.380089 24.49451139 -10.39714743 27.80576028 -10.4140625 31.1171875 C-10.43277668 33.41790459 -10.45235028 35.71861484 -10.4727478 38.01931763 C-10.52404845 44.06579552 -10.56368539 50.11229565 -10.60089111 56.15887451 C-10.6409436 62.33253473 -10.6920303 68.50610257 -10.7421875 74.6796875 C-10.83892239 86.78639342 -10.9233351 98.89315152 -11 111 C-11.33 111 -11.66 111 -12 111 C-12.06947946 97.26570254 -12.12280096 83.53144682 -12.15543652 69.79700947 C-12.17109913 63.41970428 -12.1923486 57.04251924 -12.22631836 50.6652832 C-12.25889007 44.51206975 -12.27684853 38.35897194 -12.28463173 32.20567894 C-12.29017913 29.85690681 -12.30101169 27.50814107 -12.31719017 25.15941811 C-12.33893492 21.87217097 -12.3419681 18.58540307 -12.34057617 15.2980957 C-12.351362 14.3248938 -12.36214783 13.35169189 -12.3732605 12.34899902 C-12.35074613 7.44226972 -12.29129651 3.93808805 -9 0 C-5.8168485 -1.59157575 -3.38676935 -0.77242108 0 0 Z " fill="#CC8544" transform="translate(147,15)"/>
<path d="M0 0 C1.31260048 -0.00786278 1.31260048 -0.00786278 2.65171814 -0.0158844 C4.49835144 -0.02229829 6.34502563 -0.02097579 8.19165039 -0.01245117 C11.02108072 -0.00392512 13.84850265 -0.03273583 16.67773438 -0.06445312 C18.47265564 -0.06606482 20.26758049 -0.06548821 22.0625 -0.0625 C22.9094191 -0.07373398 23.7563382 -0.08496796 24.62892151 -0.09654236 C30.45667007 -0.02713735 30.45667007 -0.02713735 32.99414062 2.2734375 C34.32018575 5.22435481 34.39861142 7.64262665 34.40234375 10.87109375 C34.42167969 11.98355469 34.44101563 13.09601563 34.4609375 14.2421875 C33.83694323 18.25638683 32.94732271 19.67215688 29.96484375 22.43359375 C27.02178168 23.13609009 24.16043172 23.03999391 21.1484375 22.95703125 C20.29556656 22.95232819 19.44269562 22.94762512 18.5639801 22.94277954 C15.84260909 22.92145279 13.12319294 22.86485236 10.40234375 22.80859375 C8.56707566 22.79208459 6.73178676 22.77773705 4.89648438 22.765625 C-8.44349634 22.63081372 -8.44349634 22.63081372 -12.03515625 21.43359375 C-12.03515625 20.77359375 -12.03515625 20.11359375 -12.03515625 19.43359375 C1.82484375 19.76359375 15.68484375 20.09359375 29.96484375 20.43359375 C31.12055079 16.96647264 31.29319668 13.89209815 31.52734375 10.24609375 C31.61113281 8.97378906 31.69492187 7.70148438 31.78125 6.390625 C31.87212891 4.92689453 31.87212891 4.92689453 31.96484375 3.43359375 C26.00171209 3.40894801 20.0386098 3.39075975 14.07543945 3.37866211 C12.04516077 3.37362097 10.01488573 3.36678818 7.98461914 3.3581543 C5.07307028 3.34607908 2.16156925 3.34036341 -0.75 3.3359375 C-1.66353745 3.33077621 -2.57707489 3.32561493 -3.51829529 3.32029724 C-5.69091052 3.32010207 -7.86342921 3.3714757 -10.03515625 3.43359375 C-11.97606451 5.37450201 -11.4343506 8.90653277 -11.59765625 11.49609375 C-11.68144531 12.78644531 -11.76523437 14.07679687 -11.8515625 15.40625 C-11.91214844 16.40527344 -11.97273438 17.40429688 -12.03515625 18.43359375 C-12.36515625 18.43359375 -12.69515625 18.43359375 -13.03515625 18.43359375 C-13.14314215 15.99491207 -13.22242214 13.56100242 -13.28515625 11.12109375 C-13.31867187 10.43080078 -13.3521875 9.74050781 -13.38671875 9.02929688 C-13.48475241 3.95605472 -13.48475241 3.95605472 -11.57543945 1.73730469 C-7.77079368 -0.21529583 -4.21961606 -0.01466131 0 0 Z " fill="#CB7929" transform="translate(31.03515625,92.56640625)"/>
<path d="M0 0 C9.2284759 4.26447064 16.23158404 10.49703802 20 20 C22.69175169 28.07525508 22.05993653 39.10205334 18.38671875 46.7578125 C13.92079981 53.97876312 8.14109775 60.06109749 0 63 C-0.66 62.67 -1.32 62.34 -2 62 C-1.67 61.34 -1.34 60.68 -1 60 C0.32 60 1.64 60 3 60 C3 59.34 3 58.68 3 58 C3.66 58 4.32 58 5 58 C5 56.68 5 55.36 5 54 C5.33 53.01 5.66 52.02 6 51 C7.485 50.505 7.485 50.505 9 50 C9.33 50.66 9.66 51.32 10 52 C13.54651103 50.81782966 13.87284312 50.18183089 15.625 47 C19.14885909 39.74063864 18.89900688 31.91418821 19 24 C17.35 24 15.7 24 14 24 C13.93941406 23.37351562 13.87882812 22.74703125 13.81640625 22.1015625 C13.73261719 21.28429687 13.64882813 20.46703125 13.5625 19.625 C13.48128906 18.81289062 13.40007812 18.00078125 13.31640625 17.1640625 C13.10909886 14.95727195 13.10909886 14.95727195 12 13 C12.33 12.34 12.66 11.68 13 11 C10.69 11.33 8.38 11.66 6 12 C6 11.01 6 10.02 6 9 C6.66 9 7.32 9 8 9 C5.28395285 6.12579877 5.28395285 6.12579877 2 4 C2 3.34 2 2.68 2 2 C1.34 2 0.68 2 0 2 C0 1.34 0 0.68 0 0 Z " fill="#D37B27" transform="translate(404,70)"/>
<path d="M0 0 C6.90503897 -0.07603428 13.80997007 -0.12859318 20.71533203 -0.16479492 C23.06465693 -0.1798859 25.41395363 -0.20036092 27.76318359 -0.22631836 C31.13906815 -0.2626872 34.51458037 -0.27972338 37.890625 -0.29296875 C38.94179504 -0.30845261 39.99296509 -0.32393646 41.07598877 -0.33988953 C42.05670349 -0.34011612 43.03741821 -0.34034271 44.04785156 -0.34057617 C44.90944885 -0.34723801 45.77104614 -0.35389984 46.65875244 -0.36076355 C49.52111816 0.08029926 50.89508439 1.04387629 53 3 C53.49609375 4.9375 53.49609375 4.9375 53.4375 7 C53.43621094 7.680625 53.43492187 8.36125 53.43359375 9.0625 C52.8585661 11.6319929 52.09434373 12.40476057 50 14 C47.3368988 14.38095093 47.3368988 14.38095093 44.09155273 14.38818359 C42.87696884 14.39764008 41.66238495 14.40709656 40.41099548 14.4168396 C39.09845291 14.41076691 37.78591034 14.40469421 36.43359375 14.3984375 C35.07503605 14.4004583 33.7164794 14.40336978 32.35792542 14.40713501 C29.51235616 14.41155667 26.66706959 14.4051318 23.8215332 14.39111328 C20.17048163 14.37400471 16.52009081 14.38387339 12.86906338 14.40183067 C10.06467182 14.4126592 7.26043757 14.40922686 4.45604134 14.4014473 C2.45404253 14.39846793 0.45203765 14.40759138 -1.54994202 14.4168396 C-2.76137375 14.40738312 -3.97280548 14.39792664 -5.22094727 14.38818359 C-6.82620018 14.38460342 -6.82620018 14.38460342 -8.46388245 14.38095093 C-9.71926064 14.19238022 -9.71926064 14.19238022 -11 14 C-11.66 13.01 -12.32 12.02 -13 11 C7.79 11.33 28.58 11.66 50 12 C50 9.03 50 6.06 50 3 C47.16037579 2.0534586 45.29593471 1.85005776 42.3449707 1.79467773 C41.40422195 1.77473251 40.46347321 1.75478729 39.49421692 1.73423767 C38.48163315 1.71752518 37.46904938 1.70081268 36.42578125 1.68359375 C35.38681198 1.66281265 34.34784271 1.64203156 33.27738953 1.62062073 C29.95582747 1.55519344 26.63418584 1.49627179 23.3125 1.4375 C21.0618407 1.39430831 18.81118948 1.35069381 16.56054688 1.30664062 C11.0404489 1.19951902 5.52027163 1.09773984 0 1 C0 0.67 0 0.34 0 0 Z " fill="#C97C32" transform="translate(150,119)"/>
<path d="M0 0 C0.66 0 1.32 0 2 0 C2 0.66 2 1.32 2 2 C2.99 2 3.98 2 5 2 C6.00109515 5.31070838 6.10356134 8.30084769 6.0625 11.75 C6.05347656 12.73484375 6.04445313 13.7196875 6.03515625 14.734375 C6.02355469 15.48203125 6.01195312 16.2296875 6 17 C2.4599004 18.91150086 0.06773991 19.51928595 -4 19 C-7.16088998 15.85416188 -7.45106013 13.10049357 -7.6875 8.75 C-7.75324219 7.67234375 -7.81898438 6.5946875 -7.88671875 5.484375 C-7.92410156 4.66453125 -7.96148437 3.8446875 -8 3 C-7.01 3.33 -6.02 3.66 -5 4 C-4.34 3.34 -3.68 2.68 -3 2 C-2.01 2 -1.02 2 0 2 C0 1.34 0 0.68 0 0 Z " fill="#E4760C" transform="translate(418,32)"/>
<path d="M0 0 C0.33 0.99 0.66 1.98 1 3 C1.7425 2.67 2.485 2.34 3.25 2 C6 1 6 1 10 1 C10 2.32 10 3.64 10 5 C9.34 5 8.68 5 8 5 C8.33 6.65 8.66 8.3 9 10 C7.02 10.99 7.02 10.99 5 12 C5 12.66 5 13.32 5 14 C9.11248383 14.96542018 13.0515157 15.19489963 17.26953125 15.31640625 C18.29103523 15.3475779 18.29103523 15.3475779 19.33317566 15.37937927 C21.49285508 15.44437878 23.65264846 15.50352712 25.8125 15.5625 C27.28321456 15.6057325 28.75391791 15.64934825 30.22460938 15.69335938 C33.81628717 15.80000859 37.40809082 15.90141349 41 16 C40.67 16.66 40.34 17.32 40 18 C34.78559487 18.07412765 29.57149607 18.12859104 24.35668945 18.16479492 C22.58254657 18.17988641 20.80844102 18.20036191 19.03442383 18.22631836 C16.48509513 18.26268641 13.93625941 18.27972238 11.38671875 18.29296875 C10.59287277 18.30845261 9.79902679 18.32393646 8.98112488 18.33988953 C3.52907967 18.34155776 3.52907967 18.34155776 0.99414062 16.70507812 C-0.70869185 13.78450297 -0.30675773 10.58750074 -0.1875 7.3125 C-0.17396484 6.61060547 -0.16042969 5.90871094 -0.14648438 5.18554688 C-0.11120182 3.45670171 -0.05739583 1.72825235 0 0 Z " fill="#D97719" transform="translate(18,37)"/>
<path d="M0 0 C0.66 0 1.32 0 2 0 C2 12.54 2 25.08 2 38 C6.95 37.814375 6.95 37.814375 12 37.625 C13.02351563 37.59100098 14.04703125 37.55700195 15.1015625 37.52197266 C22.06001059 37.22440744 28.85215584 36.58624243 35 33 C34.49396008 35.16874252 34.00016187 36.99967627 33 39 C28.52459016 40.26229508 28.52459016 40.26229508 26 39 C26 39.66 26 40.32 26 41 C22.04137069 40.86157705 18.08318673 40.71300994 14.125 40.5625 C12.99707031 40.52318359 11.86914062 40.48386719 10.70703125 40.44335938 C9.63066406 40.40146484 8.55429687 40.35957031 7.4453125 40.31640625 C6.45031738 40.27974854 5.45532227 40.24309082 4.43017578 40.20532227 C2 40 2 40 0 39 C0 26.13 0 13.26 0 0 Z " fill="#CF7A28" transform="translate(257,29)"/>
<path d="M0 0 C1.32 0 2.64 0 4 0 C2.35 11.22 0.7 22.44 -1 34 C-1.33 34 -1.66 34 -2 34 C-2 28.72 -2 23.44 -2 18 C-2.66 18 -3.32 18 -4 18 C-4 18.66 -4 19.32 -4 20 C-4.66 20 -5.32 20 -6 20 C-6.12375 20.804375 -6.2475 21.60875 -6.375 22.4375 C-6.684375 23.7059375 -6.684375 23.7059375 -7 25 C-7.66 25.33 -8.32 25.66 -9 26 C-6.85638413 16.95544533 -3.56670448 8.55316512 0 0 Z " fill="#D57B21" transform="translate(83,0)"/>
<path d="M0 0 C0.66 0 1.32 0 2 0 C2.04241723 2.33294775 2.04092937 4.66702567 2 7 C1.67 7.33 1.34 7.66 1 8 C1 8.66 1 9.32 1 10 C2.32 10 3.64 10 5 10 C5.33 7.36 5.66 4.72 6 2 C6.99 1.67 7.98 1.34 9 1 C8.36306741 4.5922998 7.4129328 7.87918241 6.15234375 11.30078125 C5.79462891 12.27724609 5.43691406 13.25371094 5.06835938 14.25976562 C4.69517578 15.26716797 4.32199219 16.27457031 3.9375 17.3125 C3.37192383 18.85260742 3.37192383 18.85260742 2.79492188 20.42382812 C1.86653932 22.95043887 0.93479871 25.47575761 0 28 C-1.32 28 -2.64 28 -4 28 C-3.52232837 24.45813003 -3.04259556 20.91654215 -2.5625 17.375 C-2.42779297 16.37597656 -2.29308594 15.37695312 -2.15429688 14.34765625 C-1.50323418 9.55202374 -0.83796399 4.76744562 0 0 Z " fill="#D57B1F" transform="translate(65,121)"/>
<path d="M0 0 C0.82504532 0.00293564 1.65009064 0.00587128 2.50013733 0.00889587 C3.77800865 0.0010331 3.77800865 0.0010331 5.08169556 -0.00698853 C6.8830303 -0.01341041 8.68440697 -0.01206955 10.48573303 -0.0035553 C13.24064447 0.00494827 15.99347805 -0.02379207 18.7481842 -0.05555725 C20.49883462 -0.05716954 22.24948871 -0.05659121 24.00013733 -0.05360413 C24.82315842 -0.0648381 25.6461795 -0.07607208 26.49414062 -0.08764648 C30.33160105 -0.04094449 32.20596609 -0.01459041 35.35023499 2.33921814 C37.56341645 5.51380328 36.96115768 7.51223927 36.37904358 11.18077087 C35.62763096 14.20207578 34.39348207 16.76855044 32.81654358 19.44248962 C30.41284273 14.63508792 33.69035857 8.69801968 34.81654358 3.44248962 C20.29654358 3.44248962 5.77654358 3.44248962 -9.18345642 3.44248962 C-5.80150061 0.06053381 -4.59135403 0.07586252 0 0 Z " fill="#C87A2E" transform="translate(28.183456420898438,32.55751037597656)"/>
<path d="M0 0 C1.29550781 -0.04350586 1.29550781 -0.04350586 2.6171875 -0.08789062 C8.95192483 -0.15143351 8.95192483 -0.15143351 12.1015625 2.01953125 C13.67395586 4.38618484 14.72752597 6.62007791 15.625 9.3125 C16.85476562 9.36857422 16.85476562 9.36857422 18.109375 9.42578125 C19.18703125 9.49152344 20.2646875 9.55726562 21.375 9.625 C22.44234375 9.68300781 23.5096875 9.74101562 24.609375 9.80078125 C27.8071068 10.34340154 29.25098691 11.16321145 31.625 13.3125 C31.295 15.6225 30.965 17.9325 30.625 20.3125 C30.295 20.3125 29.965 20.3125 29.625 20.3125 C29.13 17.3425 29.13 17.3425 28.625 14.3125 C23.345 13.3225 18.065 12.3325 12.625 11.3125 C11.965 8.6725 11.305 6.0325 10.625 3.3125 C3.695 3.3125 -3.235 3.3125 -10.375 3.3125 C-11.035 5.2925 -11.695 7.2725 -12.375 9.3125 C-13.035 8.9825 -13.695 8.6525 -14.375 8.3125 C-10.92175687 -0.32060783 -8.63201602 0.09576941 0 0 Z " fill="#C77B32" transform="translate(41.375,2.6875)"/>
<path d="M0 0 C5.9090625 -0.0928125 5.9090625 -0.0928125 11.9375 -0.1875 C13.77235962 -0.22846802 13.77235962 -0.22846802 15.64428711 -0.27026367 C28.79428378 -0.36952101 28.79428378 -0.36952101 34 3 C34.73413086 5.10864258 34.73413086 5.10864258 35 7 C34.47277344 6.72285156 33.94554687 6.44570312 33.40234375 6.16015625 C23.05626632 1.55279055 12.16528313 2.25815684 1 2 C1 14.54 1 27.08 1 40 C0.67 40 0.34 40 0 40 C0 26.8 0 13.6 0 0 Z " fill="#CB7D31" transform="translate(258,79)"/>
<path d="M0 0 C0.46148437 0.39832031 0.92296875 0.79664063 1.3984375 1.20703125 C-2.46851928 1.20703125 -5.1104077 -0.21206846 -8.6015625 -1.79296875 C-8.6015625 -2.45296875 -8.6015625 -3.11296875 -8.6015625 -3.79296875 C-9.7771875 -3.51453125 -9.7771875 -3.51453125 -10.9765625 -3.23046875 C-13.6015625 -2.79296875 -13.6015625 -2.79296875 -15.6015625 -3.79296875 C-17.36926577 -3.9153701 -19.14216712 -3.96848028 -20.9140625 -3.98046875 C-22.33138672 -4.00173828 -22.33138672 -4.00173828 -23.77734375 -4.0234375 C-26.74563132 -3.7812121 -28.91023415 -3.03323482 -31.6015625 -1.79296875 C-31.6015625 -2.45296875 -31.6015625 -3.11296875 -31.6015625 -3.79296875 C-32.74625 -3.26703125 -32.74625 -3.26703125 -33.9140625 -2.73046875 C-36.6015625 -1.79296875 -36.6015625 -1.79296875 -39.6015625 -2.79296875 C-26.11172663 -9.98977945 -12.21885193 -9.9247987 0 0 Z " fill="#D57A27" transform="translate(413.6015625,20.79296875)"/>
<path d="M0 0 C1.8203125 0.26953125 1.8203125 0.26953125 4.125 0.8125 C4.93066406 1.00199219 5.73632812 1.19148438 6.56640625 1.38671875 C9.73555845 2.18536545 12.86781825 3.06700969 16 4 C16.495 6.475 16.495 6.475 17 9 C15.9275 8.34 14.855 7.68 13.75 7 C7.30214093 3.77607046 0.27270208 3.94806005 -6.5 6.125 C-9.48760661 8.36570496 -11.09010367 10.81683945 -13 14 C-13.33 14 -13.66 14 -14 14 C-14 12.35 -14 10.7 -14 9 C-14.66 8.67 -15.32 8.34 -16 8 C-15.67 7.34 -15.34 6.68 -15 6 C-14.34 6 -13.68 6 -13 6 C-13 5.34 -13 4.68 -13 4 C-12.14535156 3.79503906 -11.29070312 3.59007812 -10.41015625 3.37890625 C-9.30542969 3.10949219 -8.20070313 2.84007812 -7.0625 2.5625 C-5.40927734 2.16224609 -5.40927734 2.16224609 -3.72265625 1.75390625 C-1.10578746 1.27004275 -1.10578746 1.27004275 0 0 Z " fill="#D97B1C" transform="translate(389,24)"/>
<path d="M0 0 C0.33 0 0.66 0 1 0 C1.33 2.64 1.66 5.28 2 8 C1.01 8 0.02 8 -1 8 C-0.773125 8.721875 -0.54625 9.44375 -0.3125 10.1875 C0 13 0 13 -1.5625 15.375 C-3.37382686 18.05218333 -3.37382686 18.05218333 -2.4375 21.6875 C-0.87517532 25.28763948 -0.40860196 25.5849771 3 27 C1.54364629 27.22174933 0.08477044 27.42698698 -1.375 27.625 C-2.59316406 27.79902344 -2.59316406 27.79902344 -3.8359375 27.9765625 C-4.55007812 27.98429687 -5.26421875 27.99203125 -6 28 C-6.66 27.34 -7.32 26.68 -8 26 C-7.69380742 19.96251037 -5.58839583 14.66334757 -3.4375 9.0625 C-3.10814453 8.18787109 -2.77878906 7.31324219 -2.43945312 6.41210938 C-1.63262162 4.27225191 -0.81936819 2.13508136 0 0 Z " fill="#D57920" transform="translate(60,61)"/>
<path d="M0 0 C0.928125 0.20625 1.85625 0.4125 2.8125 0.625 C4.03640013 4.87305226 3.53534355 7.28018159 1.94140625 11.36328125 C1.53212891 12.42998047 1.12285156 13.49667969 0.70117188 14.59570312 C0.26353516 15.69849609 -0.17410156 16.80128906 -0.625 17.9375 C-1.05876953 19.05962891 -1.49253906 20.18175781 -1.93945312 21.33789062 C-3.01091696 24.10485768 -4.09389318 26.86672638 -5.1875 29.625 C-5.5175 29.625 -5.8475 29.625 -6.1875 29.625 C-6.51021125 24.24647913 -5.68483817 21.33152194 -3.1875 16.625 C-1.77576564 12.29568129 -0.90133672 8.2036125 -1.1875 3.625 C-3.6625 2.635 -3.6625 2.635 -6.1875 1.625 C-3.1875 -0.375 -3.1875 -0.375 0 0 Z " fill="#D9761D" transform="translate(92.1875,59.375)"/>
<path d="M0 0 C0.33 0 0.66 0 1 0 C0.97679687 1.05960938 0.95359375 2.11921875 0.9296875 3.2109375 C0.91093056 4.5989513 0.89273028 5.9869727 0.875 7.375 C0.85824219 8.07367188 0.84148437 8.77234375 0.82421875 9.4921875 C0.80655733 11.32897486 0.89696739 13.16601963 1 15 C1.66 15.66 2.32 16.32 3 17 C2.625 20.625 2.625 20.625 2 24 C2.66 24 3.32 24 4 24 C7 27.46153846 7 27.46153846 7 30 C7.99 30.33 8.98 30.66 10 31 C10.33 31.99 10.66 32.98 11 34 C13.00016466 35.20882096 13.00016466 35.20882096 15 36 C14.67 36.66 14.34 37.32 14 38 C7.91673316 36.38972348 4.79762917 32.053204 1.73046875 26.84375 C-2.01592937 18.90085646 -2.60725395 8.43648025 0 0 Z " fill="#C97B30" transform="translate(361,34)"/>
<path d="M0 0 C2.97 0.495 2.97 0.495 6 1 C6.33 5.29 6.66 9.58 7 14 C7.66 14 8.32 14 9 14 C8.7009375 14.53882812 8.401875 15.07765625 8.09375 15.6328125 C6.84002195 18.3462382 6.18109058 20.96555872 5.5 23.875 C4.50785118 27.99468392 3.44108811 32.00929448 2 36 C1.67 36 1.34 36 1 36 C1.66567493 24.91306929 3.36035171 13.97623447 5 3 C3.02 3 1.04 3 -1 3 C-0.67 2.01 -0.34 1.02 0 0 Z " fill="#D5751F" transform="translate(65,84)"/>
<path d="M0 0 C0.33 0.66 0.66 1.32 1 2 C1.804375 2.12375 2.60875 2.2475 3.4375 2.375 C6 3 6 3 7.3125 5.0625 C7.6528125 6.0215625 7.6528125 6.0215625 8 7 C6.02 6.01 4.04 5.02 2 4 C1.67 6.97 1.34 9.94 1 13 C0.01 12.34 -0.98 11.68 -2 11 C-1.2265625 11.99 -1.2265625 11.99 -0.4375 13 C1.54941167 17.14659826 0.83335149 19.53020565 0 24 C-0.33 24 -0.66 24 -1 24 C-1.17015625 23.33613281 -1.3403125 22.67226563 -1.515625 21.98828125 C-2.93131569 16.83004654 -4.1901501 12.94122403 -8 9 C-5.69 8.34 -3.38 7.68 -1 7 C-0.67 4.69 -0.34 2.38 0 0 Z " fill="#E07B15" transform="translate(299,23)"/>
<path d="M0 0 C1.02075623 -0.00287018 1.02075623 -0.00287018 2.06213379 -0.00579834 C3.50122446 -0.00715963 4.94032744 -0.00346705 6.37939453 0.00488281 C8.58524087 0.01558372 10.79027281 0.00498628 12.99609375 -0.0078125 C14.39323097 -0.00649089 15.79036768 -0.00392848 17.1875 0 C18.46302734 0.00225586 19.73855469 0.00451172 21.05273438 0.00683594 C24.09375 0.265625 24.09375 0.265625 26.09375 2.265625 C26.21875 4.890625 26.21875 4.890625 26.09375 7.265625 C25.58166992 6.61819336 25.06958984 5.97076172 24.54199219 5.30371094 C21.25410259 2.56664448 19.16444639 2.72580035 14.921875 2.65625 C14.2394574 2.63971375 13.55703979 2.62317749 12.85394287 2.60614014 C10.68378646 2.55772661 8.51433028 2.53630635 6.34375 2.515625 C4.86845448 2.48745938 3.39319149 2.45753111 1.91796875 2.42578125 C-1.68995198 2.35197275 -5.29773972 2.30235606 -8.90625 2.265625 C-6.03758116 -0.60304384 -4.00969387 0.00709142 0 0 Z " fill="#C77B30" transform="translate(28.90625,62.734375)"/>
<path d="M0 0 C0.66 0 1.32 0 2 0 C1.23504496 3.61615111 0.55285053 6.33113373 -1.82421875 9.20703125 C-6.76255998 11.99509844 -11.55619067 11.53964976 -17.125 11.4375 C-18.22199219 11.44458984 -19.31898437 11.45167969 -20.44921875 11.45898438 C-28.60607027 11.39392973 -28.60607027 11.39392973 -32 8 C-18.635 8.495 -18.635 8.495 -5 9 C-5 8.34 -5 7.68 -5 7 C-4.01 7 -3.02 7 -2 7 C-1.855625 6.21625 -1.71125 5.4325 -1.5625 4.625 C-1 2 -1 2 0 0 Z " fill="#CD792A" transform="translate(51,74)"/>
<path d="M0 0 C4.37988678 3.92594894 5.66677196 8.94763115 6.29296875 14.68359375 C6.51498437 22.13697513 5.71262611 29.74484867 0.8125 35.625 C-0.0846875 36.305625 -0.0846875 36.305625 -1 37 C-1.495 35.515 -1.495 35.515 -2 34 C-1.01 34 -0.02 34 1 34 C1.33 31.36 1.66 28.72 2 26 C2.66 26 3.32 26 4 26 C3.67 19.4 3.34 12.8 3 6 C2.01 5.67 1.02 5.34 0 5 C0 3.35 0 1.7 0 0 Z " fill="#CF802E" transform="translate(307,30)"/>
<path d="M0 0 C0.66 0 1.32 0 2 0 C2.125 7.625 2.125 7.625 1 11 C0.96125079 12.66621616 0.9549714 14.33394172 1 16 C0.67 15.34 0.34 14.68 0 14 C-1.65 14 -3.3 14 -5 14 C-5.125 11.125 -5.125 11.125 -5 8 C-4.34 7.34 -3.68 6.68 -3 6 C-2.3574765 3.93125966 -2.3574765 3.93125966 -2 2 C-1.34 2 -0.68 2 0 2 C0 1.34 0 0.68 0 0 Z " fill="#E67608" transform="translate(79,18)"/>
<path d="M0 0 C3.66659815 -0.05864392 7.33307364 -0.09381108 11 -0.125 C12.54494141 -0.15013672 12.54494141 -0.15013672 14.12109375 -0.17578125 C20.08380921 -0.21376033 25.35146807 -0.0116234 31 2 C31.33 2.99 31.66 3.98 32 5 C31.17435547 4.80083984 31.17435547 4.80083984 30.33203125 4.59765625 C20.33807462 2.47490887 10.1775252 2.34865217 0 2 C0 1.34 0 0.68 0 0 Z " fill="#CE7C2E" transform="translate(259,27)"/>
<path d="M0 0 C2.475 0.495 2.475 0.495 5 1 C5.36237263 2.62318979 5.71465157 4.2486358 6.0625 5.875 C6.25972656 6.77992187 6.45695312 7.68484375 6.66015625 8.6171875 C7 11 7 11 6 13 C6 14.134375 6 15.26875 6 16.4375 C6 20 6 20 5 23 C2.9375 23.6875 2.9375 23.6875 1 24 C1.33 23.2575 1.66 22.515 2 21.75 C3.64718525 15.57305532 4.46406607 8.15003672 1.5 2.25 C1.005 1.5075 0.51 0.765 0 0 Z " fill="#D67921" transform="translate(294,88)"/>
<path d="M0 0 C0.81984375 0.20496094 1.6396875 0.40992187 2.484375 0.62109375 C4.10085938 1.02521484 4.10085938 1.02521484 5.75 1.4375 C6.81734375 1.70433594 7.8846875 1.97117187 8.984375 2.24609375 C9.97953125 2.49488281 10.9746875 2.74367188 12 3 C12.7115625 3.1959375 13.423125 3.391875 14.15625 3.59375 C17.09148297 4.24049625 20.00869637 4.05752507 23 4 C23 4.66 23 5.32 23 6 C21.68 6.33 20.36 6.66 19 7 C19.66 7.33 20.32 7.66 21 8 C21 8.66 21 9.32 21 10 C13.55620912 7.76686274 6.88023305 4.59727921 0 1 C0 0.67 0 0.34 0 0 Z " fill="#DE7E19" transform="translate(375,72)"/>
<path d="M0 0 C1.32 0 2.64 0 4 0 C3.01 6.93 2.02 13.86 1 21 C0.67 21 0.34 21 0 21 C-0.07654536 16.48382401 -0.10228696 12.40914783 1 8 C0.01 8 -0.98 8 -2 8 C-2.12375 8.969375 -2.2475 9.93875 -2.375 10.9375 C-2.58125 11.948125 -2.7875 12.95875 -3 14 C-3.99 14.495 -3.99 14.495 -5 15 C-1.92482916 4.44191344 -1.92482916 4.44191344 0 0 Z " fill="#CD8833" transform="translate(83,0)"/>
<path d="M0 0 C0.33 0.66 0.66 1.32 1 2 C-3.55152395 8.01451379 -3.55152395 8.01451379 -7 10 C-9.75 10.1875 -9.75 10.1875 -12 10 C-12 10.66 -12 11.32 -12 12 C-14.64 12 -17.28 12 -20 12 C-20 11.34 -20 10.68 -20 10 C-21.134375 9.87625 -22.26875 9.7525 -23.4375 9.625 C-25.2009375 9.315625 -25.2009375 9.315625 -27 9 C-27.33 8.34 -27.66 7.68 -28 7 C-27.16597656 7.17917969 -26.33195312 7.35835938 -25.47265625 7.54296875 C-18.29015652 8.90048588 -12.5352685 9.71693396 -6 6 C-3.0385032 3.54242578 -3.0385032 3.54242578 -1 1 C-0.67 0.67 -0.34 0.34 0 0 Z " fill="#CC7C2E" transform="translate(408,111)"/>
<path d="M0 0 C1.2065625 0.0309375 1.2065625 0.0309375 2.4375 0.0625 C1.963125 0.660625 1.48875 1.25875 1 1.875 C-1.24880502 6.46256225 -1.306034 11.01277297 -1.5625 16.0625 C0.0875 15.7325 1.7375 15.4025 3.4375 15.0625 C3.4375 15.7225 3.4375 16.3825 3.4375 17.0625 C0.42718256 17.99673645 -0.42900268 18.10699911 -3.5625 17.0625 C-3.58934679 14.41659986 -3.60926357 11.77096904 -3.625 9.125 C-3.63337891 8.37025391 -3.64175781 7.61550781 -3.65039062 6.83789062 C-3.65902441 4.91255687 -3.61474333 2.98714419 -3.5625 1.0625 C-2.5625 0.0625 -2.5625 0.0625 0 0 Z " fill="#E5780F" transform="translate(21.5625,64.9375)"/>
<path d="M0 0 C0.65484375 0.30292969 1.3096875 0.60585938 1.984375 0.91796875 C8.92672415 4.10478156 15.93270965 7.10154759 23 10 C19.28233332 11.23922223 17.56110463 10.57018942 13.8125 9.5625 C12.18248047 9.13130859 12.18248047 9.13130859 10.51953125 8.69140625 C9.68808594 8.46324219 8.85664063 8.23507813 8 8 C8 7.34 8 6.68 8 6 C6.68 6 5.36 6 4 6 C4 5.34 4 4.68 4 4 C2.68 3.67 1.36 3.34 0 3 C0 2.01 0 1.02 0 0 Z " fill="#D17D2D" transform="translate(380,59)"/>
<path d="M0 0 C2.125 0.9375 2.125 0.9375 4 2 C4 2.99 4 3.98 4 5 C2.20703125 6.7890625 2.20703125 6.7890625 -0.1875 8.625 C-0.96480469 9.23601562 -1.74210937 9.84703125 -2.54296875 10.4765625 C-5.09498638 12.05889458 -7.04484925 12.61157877 -10 13 C-9.67 12.01 -9.34 11.02 -9 10 C-7.68 10 -6.36 10 -5 10 C-5 9.34 -5 8.68 -5 8 C-4.34 8 -3.68 8 -3 8 C-3 6.68 -3 5.36 -3 4 C-2.67 3.01 -2.34 2.02 -2 1 C-1.34 0.67 -0.68 0.34 0 0 Z " fill="#DF7C1E" transform="translate(412,120)"/>
<path d="M0 0 C3 2 3 2 3.87890625 4.86328125 C4.10449219 6.00152344 4.33007812 7.13976562 4.5625 8.3125 C5.39159442 12.4204989 6.3190783 16.15480143 8 20 C7.01 20.33 6.02 20.66 5 21 C2.43764478 13.95650263 0.4996269 7.49440349 0 0 Z " fill="#D37E29" transform="translate(368,95)"/>
<path d="M0 0 C1.35304209 4.05912626 0.15216503 5.77149591 -1.4375 9.6875 C-1.91058594 10.86699219 -2.38367188 12.04648438 -2.87109375 13.26171875 C-3.24363281 14.16535156 -3.61617188 15.06898438 -4 16 C-4.99 15.67 -5.98 15.34 -7 15 C-7 13.02 -7 11.04 -7 9 C-5.68 9 -4.36 9 -3 9 C-2.87625 7.700625 -2.7525 6.40125 -2.625 5.0625 C-2.4140625 2.84765625 -2.4140625 2.84765625 -2 1 C-1.34 0.67 -0.68 0.34 0 0 Z " fill="#DC7B19" transform="translate(73,122)"/>
<path d="M0 0 C1 2 1 2 0.3125 4.375 C-1.10916729 7.21833459 -2.57792728 8.95637614 -5 11 C-5.66 11 -6.32 11 -7 11 C-7 11.66 -7 12.32 -7 13 C-7.66 13 -8.32 13 -9 13 C-7.68554313 7.01191871 -4.38808974 3.96570677 0 0 Z " fill="#D8751D" transform="translate(372,19)"/>
<path d="M0 0 C7.27520436 0.48501362 7.27520436 0.48501362 10.375 2.6875 C12.29821904 5.42438863 13.25283156 7.73962864 14 11 C13.54296875 13.1875 13.54296875 13.1875 13 15 C12.525625 13.80375 12.05125 12.6075 11.5625 11.375 C9.30405287 6.75134278 6.17816775 4.70385091 1.828125 2.12890625 C1.22484375 1.75636719 0.6215625 1.38382812 0 1 C0 0.67 0 0.34 0 0 Z " fill="#CB7B2D" transform="translate(397,82)"/>
<path d="M0 0 C1.32 0.33 2.64 0.66 4 1 C4 4.63 4 8.26 4 12 C4.66 12.33 5.32 12.66 6 13 C6.33 13.66 6.66 14.32 7 15 C9.64 15 12.28 15 15 15 C13.875 16.5625 13.875 16.5625 12 18 C8.69386888 17.93112227 6.76289318 17.7892648 4.41796875 15.36328125 C2.63313212 12.38855354 2.0242529 9.63929954 1.3125 6.25 C1.06113281 5.07953125 0.80976563 3.9090625 0.55078125 2.703125 C0.36902344 1.81109375 0.18726563 0.9190625 0 0 Z " fill="#C97C2E" transform="translate(407,35)"/>
<path d="M0 0 C0.66 0 1.32 0 2 0 C0.70024676 6.71539173 -1.29928888 12.72019113 -4 19 C-4.33 19 -4.66 19 -5 19 C-5 16.69 -5 14.38 -5 12 C-4.34 12 -3.68 12 -3 12 C-3.061875 11.319375 -3.12375 10.63875 -3.1875 9.9375 C-2.94131737 6.08063875 -1.64197838 3.48920406 0 0 Z " fill="#D07A2A" transform="translate(84,89)"/>
<path d="M0 0 C0 0.99 0 1.98 0 3 C-0.89203125 3.02578125 -1.7840625 3.0515625 -2.703125 3.078125 C-3.87359375 3.13484375 -5.0440625 3.1915625 -6.25 3.25 C-7.99023438 3.31960937 -7.99023438 3.31960937 -9.765625 3.390625 C-13.46661382 4.08791275 -14.67122429 5.11785184 -17 8 C-17.66 7.67 -18.32 7.34 -19 7 C-14.46389127 2.2186962 -11.80013212 0.97177559 -5.3125 0.4375 C-4.31863281 0.35371094 -3.32476562 0.26992187 -2.30078125 0.18359375 C-1.54152344 0.12300781 -0.78226563 0.06242188 0 0 Z " fill="#C97A2B" transform="translate(26,12)"/>
<path d="M0 0 C0.33 0 0.66 0 1 0 C1.125 7.625 1.125 7.625 0 11 C1.32 10.01 2.64 9.02 4 8 C3.44271087 11.34373475 2.64826111 14.03312999 1 17 C0.01 16.67 -0.98 16.34 -2 16 C-1.34 10.72 -0.68 5.44 0 0 Z " fill="#C48444" transform="translate(63,133)"/>
<path d="M0 0 C0.66 0 1.32 0 2 0 C1.96519531 0.64066406 1.93039062 1.28132813 1.89453125 1.94140625 C1.66228961 9.36207959 2.84384054 13.76576081 7 20 C6.01 20 5.02 20 4 20 C4 19.34 4 18.68 4 18 C3.34 18 2.68 18 2 18 C-0.22280043 12.51709226 -0.86971703 6.88277705 -1 1 C-0.67 0.67 -0.34 0.34 0 0 Z " fill="#D67D28" transform="translate(373,39)"/>
<path d="M0 0 C0.66 0.33 1.32 0.66 2 1 C2 1.99 2 2.98 2 4 C2.66 4 3.32 4 4 4 C3.625 5.9375 3.625 5.9375 3 8 C2.01 8.495 2.01 8.495 1 9 C0.59270772 11.32156597 0.25561323 13.6568787 0 16 C0.66 16 1.32 16 2 16 C1.67 16.66 1.34 17.32 1 18 C0.34 18 -0.32 18 -1 18 C-1.09945415 11.88909517 -1.0712828 6.02596573 0 0 Z " fill="#E37813" transform="translate(362,32)"/>
<path d="M0 0 C1.485 0.99 1.485 0.99 3 2 C3 2.66 3 3.32 3 4 C3.99 4.33 4.98 4.66 6 5 C6.33 5.99 6.66 6.98 7 8 C9.00016466 9.20882096 9.00016466 9.20882096 11 10 C10.67 10.66 10.34 11.32 10 12 C6.82338234 11.05560016 5.29396566 10.40284183 3.3125 7.6875 C2.07800824 5.15973116 0.97931465 2.63661636 0 0 Z " fill="#D6781C" transform="translate(365,60)"/>
<path d="M0 0 C2.5625 2.25 2.5625 2.25 5 5 C4.8125 7.3125 4.8125 7.3125 4 9 C2.68 9.33 1.36 9.66 0 10 C-0.19412181 8.52168779 -0.38012131 7.04230684 -0.5625 5.5625 C-0.66691406 4.73878906 -0.77132812 3.91507812 -0.87890625 3.06640625 C-0.91886719 2.38449219 -0.95882812 1.70257813 -1 1 C-0.67 0.67 -0.34 0.34 0 0 Z " fill="#E26C0C" transform="translate(50,65)"/>
<path d="M0 0 C2.97 0.495 2.97 0.495 6 1 C7.71050559 5.97601626 6.00885647 9.42616295 4 14 C3.06311181 11.18933542 2.96288724 9.8531845 3.125 7 C3.21673719 3.74511883 3.21673719 3.74511883 1.5 1 C1.005 0.67 0.51 0.34 0 0 Z " fill="#BF7737" transform="translate(89,59)"/>
<path d="M0 0 C1.98 0.66 3.96 1.32 6 2 C5.01 2.495 5.01 2.495 4 3 C4 4.98 4 6.96 4 9 C3.21625 8.34 2.4325 7.68 1.625 7 C-0.71512812 4.79798559 -0.71512812 4.79798559 -3 5 C-3 4.34 -3 3.68 -3 3 C-1.68 3 -0.36 3 1 3 C0.67 2.01 0.34 1.02 0 0 Z " fill="#E37C12" transform="translate(539,121)"/>
<path d="M0 0 C2.97 0.495 2.97 0.495 6 1 C6.02725341 2.7290774 6.04650987 4.45828176 6.0625 6.1875 C6.07410156 7.15042969 6.08570312 8.11335938 6.09765625 9.10546875 C6.00486622 11.85576513 5.62111685 14.32479591 5 17 C4.67 17 4.34 17 4 17 C4.33 12.38 4.66 7.76 5 3 C3.02 3 1.04 3 -1 3 C-0.67 2.01 -0.34 1.02 0 0 Z " fill="#D48530" transform="translate(65,84)"/>
<path d="M0 0 C2.44839588 3.67259383 4 6.54648201 4 11 C3.34 11 2.68 11 2 11 C2 10.34 2 9.68 2 9 C1.01 9 0.02 9 -1 9 C-1.33 9.99 -1.66 10.98 -2 12 C-2.66 11.67 -3.32 11.34 -4 11 C-3.525625 10.29875 -3.05125 9.5975 -2.5625 8.875 C-0.91260143 5.83918663 -0.39631536 3.40831214 0 0 Z " fill="#D57724" transform="translate(298,48)"/>
<path d="M0 0 C0.33 0 0.66 0 1 0 C1 3.3 1 6.6 1 10 C0.01 10.33 -0.98 10.66 -2 11 C-3.21869929 13.50447516 -3.21869929 13.50447516 -4 16 C-5 14 -5 14 -4.00390625 10.7421875 C-3.53110016 9.4502948 -3.05028031 8.16131362 -2.5625 6.875 C-2.31951172 6.21628906 -2.07652344 5.55757812 -1.82617188 4.87890625 C-1.22421679 3.25008662 -0.61297588 1.62470425 0 0 Z " fill="#C97828" transform="translate(73,26)"/>
<path d="M0 0 C12.66970387 -0.18451025 12.66970387 -0.18451025 18 1 C18.33 2.65 18.66 4.3 19 6 C17.906875 5.360625 16.81375 4.72125 15.6875 4.0625 C10.61779324 1.48668849 5.60985308 1.2062446 0 1 C0 0.67 0 0.34 0 0 Z " fill="#CF812E" transform="translate(387,27)"/>
<path d="M0 0 C6.56497775 0.27936076 10.92528977 2.89449408 16 7 C16.33 7.66 16.66 8.32 17 9 C16.01 9 15.02 9 14 9 C13.4225 8.38125 12.845 7.7625 12.25 7.125 C9.39303758 4.42675771 6.78026645 3.87236918 3 3 C3 2.34 3 1.68 3 1 C2.01 0.67 1.02 0.34 0 0 Z " fill="#CF7F33" transform="translate(286,16)"/>
<path d="M0 0 C1.96259262 0.39611961 3.92007661 0.81761694 5.875 1.25 C7.51082031 1.59804687 7.51082031 1.59804687 9.1796875 1.953125 C12 3 12 3 13.3828125 5.109375 C13.58648437 5.73328125 13.79015625 6.3571875 14 7 C4.22210581 3.99633316 4.22210581 3.99633316 0 1 C0 0.67 0 0.34 0 0 Z " fill="#D0812A" transform="translate(375,72)"/>
<path d="M0 0 C1.95803507 -0.05389087 3.91648909 -0.09274217 5.875 -0.125 C7.51082031 -0.15980469 7.51082031 -0.15980469 9.1796875 -0.1953125 C12 0 12 0 14 2 C13.625 5.625 13.625 5.625 13 9 C12.67 9 12.34 9 12 9 C11.67 7.02 11.34 5.04 11 3 C7.37 2.34 3.74 1.68 0 1 C0 0.67 0 0.34 0 0 Z " fill="#CF7C26" transform="translate(59,14)"/>
<path d="M0 0 C0.66 0 1.32 0 2 0 C2.05416188 1.60379341 2.09286638 3.20811406 2.125 4.8125 C2.14820313 5.70582031 2.17140625 6.59914063 2.1953125 7.51953125 C2 10 2 10 0 13 C-0.66 13 -1.32 13 -2 13 C-1.34 8.71 -0.68 4.42 0 0 Z " fill="#D37824" transform="translate(411,97)"/>
<path d="M0 0 C5.13217903 2.25315177 8.9096916 5.26063522 13 9 C12.01 9.495 12.01 9.495 11 10 C10.34 9.67 9.68 9.34 9 9 C9 8.34 9 7.68 9 7 C7.824375 6.5359375 7.824375 6.5359375 6.625 6.0625 C4 5 4 5 2 4 C2 3.34 2 2.68 2 2 C1.34 2 0.68 2 0 2 C0 1.34 0 0.68 0 0 Z " fill="#CD7B30" transform="translate(404,70)"/>
<path d="M0 0 C0.66 0 1.32 0 2 0 C2 2.97 2 5.94 2 9 C1.01 9 0.02 9 -1 9 C-1 7.35 -1 5.7 -1 4 C-1.66 3.67 -2.32 3.34 -3 3 C-2.34 3 -1.68 3 -1 3 C-0.67 2.01 -0.34 1.02 0 0 Z " fill="#E57711" transform="translate(541,18)"/>
<path d="M0 0 C1.33332095 2.6666419 0.67102033 4.16680303 0 7 C-0.99 6.67 -1.98 6.34 -3 6 C-3.99 6.99 -4.98 7.98 -6 9 C-7.32 8.34 -8.64 7.68 -10 7 C-9.1646875 6.9071875 -9.1646875 6.9071875 -8.3125 6.8125 C-5.043233 5.66383862 -3.32340442 3.51178856 -1 1 C-0.67 0.67 -0.34 0.34 0 0 Z " fill="#D67A1E" transform="translate(294,112)"/>
<path d="M0 0 C1.25955231 3.77865693 0.48087189 5.03411786 -0.9375 8.6875 C-1.31777344 9.68136719 -1.69804688 10.67523438 -2.08984375 11.69921875 C-2.39019531 12.45847656 -2.69054687 13.21773437 -3 14 C-3.94314127 10.58389775 -4.08065117 7.54865136 -4 4 C-3.34 4 -2.68 4 -2 4 C-2 3.34 -2 2.68 -2 2 C-1.34 2 -0.68 2 0 2 C0 1.34 0 0.68 0 0 Z " fill="#D7832A" transform="translate(78,108)"/>
<path d="M0 0 C0.99 0 1.98 0 3 0 C2.68289062 0.52078125 2.36578125 1.0415625 2.0390625 1.578125 C0.71079489 4.67408709 0.57635753 7.39404121 0.375 10.75 C0.30023437 11.92046875 0.22546875 13.0909375 0.1484375 14.296875 C0.09945313 15.18890625 0.05046875 16.0809375 0 17 C-0.33 17 -0.66 17 -1 17 C-1.02684679 14.35409986 -1.04676357 11.70846904 -1.0625 9.0625 C-1.07087891 8.30775391 -1.07925781 7.55300781 -1.08789062 6.77539062 C-1.09652441 4.85005687 -1.05224333 2.92464419 -1 1 C-0.67 0.67 -0.34 0.34 0 0 Z " fill="#CA741E" transform="translate(19,65)"/>
<path d="M0 0 C1.32 0 2.64 0 4 0 C3.67 2.64 3.34 5.28 3 8 C2.34 7.01 1.68 6.02 1 5 C0.01 5.66 -0.98 6.32 -2 7 C-1.34 4.69 -0.68 2.38 0 0 Z " fill="#C57F39" transform="translate(83,0)"/>
<path d="M0 0 C0.80050781 0.20882813 1.60101563 0.41765625 2.42578125 0.6328125 C3.23402344 0.83648438 4.04226563 1.04015625 4.875 1.25 C5.48988281 1.41757812 6.10476563 1.58515625 6.73828125 1.7578125 C6.73828125 2.0878125 6.73828125 2.4178125 6.73828125 2.7578125 C-1.18171875 3.2528125 -1.18171875 3.2528125 -9.26171875 3.7578125 C-7.94171875 3.0978125 -6.62171875 2.4378125 -5.26171875 1.7578125 C-2.26171875 -0.2421875 -2.26171875 -0.2421875 0 0 Z " fill="#E27D16" transform="translate(391.26171875,24.2421875)"/>
<path d="M0 0 C0.33 0 0.66 0 1 0 C1.1953125 2.05078125 1.390625 4.1015625 1.5859375 6.15234375 C1.72257813 6.76207031 1.85921875 7.37179688 2 8 C2.66 8.33 3.32 8.66 4 9 C4.625 12.0625 4.625 12.0625 5 15 C0.05479786 10.21432051 0.05479786 10.21432051 -0.09765625 6.8359375 C-0.08605469 6.02382812 -0.07445312 5.21171875 -0.0625 4.375 C-0.05347656 3.55773437 -0.04445313 2.74046875 -0.03515625 1.8984375 C-0.02355469 1.27195312 -0.01195312 0.64546875 0 0 Z " fill="#DF760C" transform="translate(5,115)"/>
<path d="M0 0 C0.33 0.66 0.66 1.32 1 2 C2.97888961 2.72693904 4.97954558 3.39816251 7 4 C7 4.99 7 5.98 7 7 C6.34 6.67 5.68 6.34 5 6 C5 5.34 5 4.68 5 4 C2.69 4.33 0.38 4.66 -2 5 C-2 4.01 -2 3.02 -2 2 C-1.34 2 -0.68 2 0 2 C0 1.34 0 0.68 0 0 Z " fill="#D9791A" transform="translate(412,77)"/>
<path d="M0 0 C2.375 -0.125 2.375 -0.125 5 0 C7 2 7 2 7.1875 5 C7 8 7 8 6 10 C5.34 10 4.68 10 4 10 C4.66 7.69 5.32 5.38 6 3 C4.02 2.34 2.04 1.68 0 1 C0 0.67 0 0.34 0 0 Z " fill="#DE7814" transform="translate(523,69)"/>
<path d="M0 0 C0.66 0 1.32 0 2 0 C2.17835515 4.54805635 1.99785435 7.8794254 0 12 C-0.33 12 -0.66 12 -1 12 C-0.67 8.04 -0.34 4.08 0 0 Z " fill="#CF7D2B" transform="translate(65,121)"/>
<path d="M0 0 C3.3 0.33 6.6 0.66 10 1 C10.33 2.32 10.66 3.64 11 5 C7.37 3.68 3.74 2.36 0 1 C0 0.67 0 0.34 0 0 Z " fill="#D1832E" transform="translate(282,81)"/>
<path d="M0 0 C0.33 0.99 0.66 1.98 1 3 C-2.08888522 5.05925681 -2.70935927 5.2390374 -6.1875 5.125 C-8.0746875 5.063125 -8.0746875 5.063125 -10 5 C-10 4.67 -10 4.34 -10 4 C-9.36191406 3.79503906 -8.72382813 3.59007813 -8.06640625 3.37890625 C-7.24011719 3.10949219 -6.41382813 2.84007813 -5.5625 2.5625 C-4.73878906 2.29566406 -3.91507812 2.02882813 -3.06640625 1.75390625 C-1.03780412 1.17844506 -1.03780412 1.17844506 0 0 Z " fill="#D07B2B" transform="translate(291,62)"/>
<path d="M0 0 C3.39417765 3.12621626 5.6062718 5.56541027 7 10 C6.34 9.67 5.68 9.34 5 9 C5 8.34 5 7.68 5 7 C4.34 7 3.68 7 3 7 C0 2.61538462 0 2.61538462 0 0 Z " fill="#D07D32" transform="translate(302,76)"/>
<path d="M0 0 C1.32 0.33 2.64 0.66 4 1 C2.35 2.65 0.7 4.3 -1 6 C-0.67 6.66 -0.34 7.32 0 8 C-0.99 7.67 -1.98 7.34 -3 7 C-3 6.01 -3 5.02 -3 4 C-2.34 3.67 -1.68 3.34 -1 3 C-0.67 2.01 -0.34 1.02 0 0 Z " fill="#D07E30" transform="translate(302,68)"/>
<path d="M0 0 C0.99 0 1.98 0 3 0 C4.2380014 3.57644848 3.74926071 6.33694766 3 10 C2.67 10 2.34 10 2 10 C1.34 6.7 0.68 3.4 0 0 Z " fill="#CC7B27" transform="translate(296,37)"/>
<path d="M0 0 C1.13643966 3.40931897 0.86747764 4.00335456 -0.4375 7.1875 C-0.86869141 8.26064453 -0.86869141 8.26064453 -1.30859375 9.35546875 C-1.53675781 9.89816406 -1.76492187 10.44085938 -2 11 C-3.05602687 7.33963618 -2.91217967 4.7316441 -2 1 C-1.34 0.67 -0.68 0.34 0 0 Z " fill="#CC7B30" transform="translate(73,122)"/>
<path d="M0 0 C0.66 0.33 1.32 0.66 2 1 C0.515 4.96 0.515 4.96 -1 9 C-1.33 9 -1.66 9 -2 9 C-2.125 5.625 -2.125 5.625 -2 2 C-1.34 1.34 -0.68 0.68 0 0 Z " fill="#CF7B2D" transform="translate(88,80)"/>
<path d="M0 0 C2.125 0.9375 2.125 0.9375 4 2 C2.25 5.875 2.25 5.875 0 7 C0 5.35 0 3.7 0 2 C-0.66 1.67 -1.32 1.34 -2 1 C-1.34 0.67 -0.68 0.34 0 0 Z " fill="#E8830D" transform="translate(67,119)"/>
<path d="M0 0 C0 0.99 0 1.98 0 3 C-2.5 5.1875 -2.5 5.1875 -5 7 C-4.49396008 4.83125748 -4.00016187 3.00032373 -3 1 C-2.01 0.67 -1.02 0.34 0 0 Z " fill="#D17E24" transform="translate(306,118)"/>
<path d="M0 0 C1.66611905 -0.042721 3.33382885 -0.04063832 5 0 C6 1 6 1 6.0625 3.5625 C6.041875 4.366875 6.02125 5.17125 6 6 C3.97945196 4.35830472 1.97956942 2.69088222 0 1 C0 0.67 0 0.34 0 0 Z " fill="#CC7A2B" transform="translate(49,64)"/>
<path d="M0 0 C0.33 0 0.66 0 1 0 C1 4.29 1 8.58 1 13 C0.67 13 0.34 13 0 13 C0 8.71 0 4.42 0 0 Z " fill="#B06244" transform="translate(16,38)"/>
<path d="M0 0 C0.33 0 0.66 0 1 0 C1 3.63 1 7.26 1 11 C0.67 11 0.34 11 0 11 C0 7.37 0 3.74 0 0 Z " fill="#FF1700" transform="translate(16,98)"/>
<path d="M0 0 C0.33 0 0.66 0 1 0 C1 3.3 1 6.6 1 10 C0.67 10 0.34 10 0 10 C0 6.7 0 3.4 0 0 Z " fill="#E51919" transform="translate(16,70)"/>
<path d="" fill="#FF0000" transform="translate(0,0)"/>
<path d="" fill="#FF0000" transform="translate(0,0)"/>
<path d="" fill="#FF0000" transform="translate(0,0)"/>
</svg>
